<?xml version="1.0" encoding="utf-8"?>
<!-- Generator: Adobe Illustrator 22.1.0, SVG Export Plug-In . SVG Version: 6.00 Build 0)  -->
<svg version="1.1" id="Layer_1" xmlns="http://www.w3.org/2000/svg" xmlns:xlink="http://www.w3.org/1999/xlink" x="0px" y="0px"
	 viewBox="0 0 320 512" style="enable-background:new 0 0 320 512;" xml:space="preserve">
<path d="M192,416c0,17.7-14.3,32-32,32s-32-14.3-32-32s14.3-32,32-32S192,398.3,192,416z M320,48v416c0,26.5-21.5,48-48,48H48
	c-26.5,0-48-21.5-48-48V48C0,21.5,21.5,0,48,0h224C298.5,0,320,21.5,320,48z M272,458V54c0-3.3-2.7-6-6-6H54c-3.3,0-6,2.7-6,6v404
	c0,3.3,2.7,6,6,6h212C269.3,464,272,461.3,272,458z"/>
</svg>
