<?xml version="1.0" encoding="utf-8"?>
<!-- Generator: Adobe Illustrator 22.1.0, SVG Export Plug-In . SVG Version: 6.00 Build 0)  -->
<svg version="1.1" id="Layer_1" xmlns="http://www.w3.org/2000/svg" xmlns:xlink="http://www.w3.org/1999/xlink" x="0px" y="0px"
	 viewBox="0 0 626 582.6" style="enable-background:new 0 0 626 582.6;" xml:space="preserve">
<style type="text/css">
	.st0{fill:#FFFFFE;}
	.st1{fill:#E2B705;}
	.st2{fill:#E8C018;}
</style>
<g>
	<g>
		<g>
			<path class="st0" d="M625.9,404.6c-0.2,1.5-0.2,3,0,4.5c-0.5,1.2,0.4,3.1-1.4,3.4c-1.7,0.3-1.3-1.8-2.1-2.6
				c-1.2-1.2-2.2-2.6-3.1-4.1l0,0c-3.2-4.1-7.3-7.3-10.8-11c-6.4-6.7-12.4-13.8-17.6-21.5c-2.8-4.1-5.6-8.3-8.1-12.6l0,0
				c-1.5-2-2.7-4.1-3.9-6.3l0,0c-0.8-0.6-1-1.6-1.5-2.4l0,0c-0.7-0.7-0.9-1.6-1.5-2.4l0,0c-0.7-0.7-0.9-1.7-1.5-2.4l0,0
				c-0.8-1.3-1.7-2.5-2.4-3.9l0,0c-0.9-1.3-1.7-2.5-2.4-3.9l0,0c-0.7-1-1.3-2-1.9-3l0,0c-1.4-1.9-2.6-3.8-3.9-5.8l0,0
				c-0.5-0.4-0.8-0.9-1-1.5l0,0c-1.4-1.7-2.7-3.5-3.9-5.3l0,0c-0.6-0.6-1.2-1.2-1.5-2l0,0c-0.6-0.8-1.6-1.4-1.9-2.5l0,0
				c-0.7-0.8-1.6-1.4-2-2.4l0,0c-0.7-0.8-1.5-1.4-2-2.4l0,0c-0.3-0.1-0.4-0.3-0.5-0.6l0.1,0c-0.8-1-1.9-1.7-2.5-2.9l0,0
				c-0.3-0.1-0.4-0.3-0.5-0.5l0.1,0c-0.2-0.1-0.3-0.2-0.4-0.4c-0.4-0.9-1.1-1.5-1.9-2c-0.7-0.5-1.3-1.1-1.6-1.9l0,0
				c-0.3-0.1-0.4-0.3-0.5-0.5l0,0c-0.3-0.1-0.5-0.3-0.5-0.5l0.1,0c-3.7-3.7-7.3-7.5-11.1-11.1l0,0.1c-0.3-0.1-0.5-0.3-0.5-0.5l0,0
				c-0.3-0.1-0.4-0.3-0.5-0.5l0,0c-1.7-1-2.8-2.6-4.3-3.9l0,0.1c-0.3-0.1-0.5-0.3-0.5-0.5l0,0c-1.4-0.7-2.2-2-3.4-2.9l0,0
				c-1.2-0.5-2-1.6-2.9-2.4l0,0.1c-0.3-0.1-0.4-0.3-0.6-0.5l0,0c-1-0.5-1.6-1.3-2.4-2l0,0c-1-0.4-1.6-1.3-2.4-2l0,0
				c-0.8-0.3-1.4-0.9-2-1.5l0,0c-0.6-0.1-1-0.6-1.4-1.1c-0.3-0.5-0.8-0.9-1.4-1c-0.6-0.3-1.2-0.8-1.7-1.3l0,0
				c-1.2-0.8-2.4-1.4-3.4-2.5l0,0c-1.2-0.7-2.4-1.5-3.4-2.4l0,0c-0.5-0.3-1.1-0.5-1.5-1l0,0c-0.5-0.3-1.1-0.5-1.5-1l0,0
				c-4-2.5-8-4.8-12-7.3l0,0c-6.1-3.3-12.4-6-18.8-8.6l0,0c-6.2-2.1-12.4-3.8-18.8-5.3l0,0c-0.8-0.4-0.8-0.9-0.2-1.4
				c0.6-0.6,1.1-1.3,1.7-1.9l0,0c1.9-2.6,4-5,6.3-7.2l0,0c2.7-3.5,5.7-6.9,9-9.8c1.5-1.3,3.4-1.4,5.4-0.7c4.5,1.7,9,3.5,13.3,5.7
				l0,0c4.6,2,9.2,4.2,13.5,6.8l0,0c1.4,0.9,3.1,1.3,4.4,2.4l0,0c2,1,4,2.1,5.8,3.4l0,0c1.4,0.7,2.7,1.5,3.9,2.4l0,0
				c0.6,0.2,1.1,0.5,1.5,1l0,0c1,0.5,1.9,1.2,2.9,1.7c0.5,0.4,0.9,0.8,1.5,1c0.5,0.4,0.9,0.8,1.5,1c0.5,0.4,1,0.7,1.6,1
				c4.5,3.2,8.8,6.6,13.2,9.9c1.9,1.7,4,3.3,5.9,5.1c0.2,0.1,0.4,0.2,0.6,0.3c0.2,0.1,0.3,0.3,0.5,0.5c0.1,0.1,0.2,0.2,0.2,0.3
				c6.9,6.2,13.3,12.8,19.9,19.4c0.2,0.2,0.3,0.3,0.5,0.5c0.2,0.1,0.3,0.3,0.5,0.5c0.1,0.2,0.2,0.4,0.3,0.5c1,1.7,3,2.6,3.8,4.5l0,0
				c1,1.1,2.2,2.2,3.2,3.4c4.5,5.6,9,11.1,13.2,16.9c2.4,3.3,4.7,6.6,6.9,10c2,3,3.8,6,5.7,9.1c0.9,1.6,1.8,3.3,2.9,4.8
				c0.6,1.1,1.2,2.3,1.8,3.5l0,0c0.3,0.3,0.5,0.7,0.7,1c0.5,1.1,1.1,2.2,1.7,3.4l0,0c0.4,0.2,0.3,0.7,0.5,1l0,0
				c3.4,6.2,6.5,12.6,9.5,19c2.4,5.2,4.5,10.5,6.6,15.8C622.2,389.2,623.8,397,625.9,404.6z"/>
			<path class="st0" d="M511.1,327.3c0.1,0.3,0.2,0.4,0.5,0.5c3.5,3.8,7.3,7.4,11,11c0.1,0.3,0.2,0.4,0.5,0.5
				c0.1,0.3,0.2,0.4,0.5,0.5c0.1,0.3,0.2,0.4,0.5,0.5c1.7,2.3,3.7,4.3,5.8,6.2c2.3,2.9,4.6,5.6,7.2,8.2c0.6,1.1,1.4,2,2.4,2.9
				c1.1,1.8,2.4,3.3,3.9,4.8c0.9,1.6,2,3.1,3.3,4.3c0.8,1.4,1.7,2.7,2.9,3.9c0.6,1.6,1.8,2.8,2.8,4.1c3.1,4.5,5.9,9.3,8.1,14.3
				c0.2,0.4,0.5,0.8,0.7,1.2c1.2,4.1,2.8,8.1,3.8,12.3c0.3,1.5,0.7,2.9,1.1,4.7c-3.6-0.1-6.9-1.4-10.4-1.3c-1.8-0.6-3.8-0.6-5.7-0.7
				c-5.7-0.3-11.3-0.3-17,0.2c-9.4,0.8-18.6,2.7-27.7,5.5c-0.3,0.1-0.6,0.2-0.9,0.3c-3.4,1.1-3.4,1.1-3.4-2.6c0-1.6,0.2-3.2,0.2-4.8
				c0-0.5,0-0.9-0.4-1.6c-1,1.4-1.4,2.9-2,4.3c-0.4,0.5-0.9,1-1.3,1.6c-0.5,0.4-0.6,1-1,1.4c-0.8,0.9-1.7,1.9-2.5,2.8
				c-0.3,0-0.4,0.2-0.5,0.4c-6.7,4.9-14.6,7.1-22.3,9.7c-0.7,0.3-1.6,0.3-2.2,0.9c-2.5,0.4-4.9,1.4-7.3,2.2
				c-5.8,1.8-11.7,3.7-17.6,5.3c-0.7,0.2-1.4,0.2-2,0.8c-2.9,0.6-5.8,1.3-8.6,2.4c-4.5,1.1-9,2.1-13.5,3.3c-1.9,0.5-3.9,0.7-5.8,1.5
				c-5.2,1.1-10.5,2.1-15.7,3.2c-10.8,2.2-21.8,3.4-32.8,3.8c-18.9,0.7-37.5-1.5-55.8-6.3c-2.6-0.7-5.2-1.4-7.8-2.2
				c-0.4-0.4-0.9-0.5-1.4-0.5c-0.4-0.4-0.9-0.5-1.4-0.5c-1.7-0.9-3.4-1.5-5.3-1.9c-0.7-0.6-1.5-0.8-2.4-1c-1-0.7-2.1-1.2-3.4-1.4
				c-0.2-0.3-0.6-0.4-1-0.5c-3.5-1.8-6.9-3.6-10.3-5.5c-12.8-7.2-24-16.4-33.4-27.7c-2-2.5-4.1-4.9-6.3-7.3c-1-1.2-1.1-1.1-2,0.6
				c-0.8,0.8-1.5,1.8-1.9,2.9c-1.3,1.3-2.6,2.5-3.8,3.8c-3.3,2-6.7,3.7-10.5,4.3c-2.9,0.5-5.9,0.6-8.8,0.6c-1.5,0-3,0.2-4.2,1.3
				c-1.2,0.5-2,1.3-2.4,2.5c-0.5,0.3-0.9,0.8-1,1.5c-0.8,0.8-1.5,1.7-2,2.8c-3,3.4-6.3,6.5-10,9.1c-1.2,0.5-2.4,1-3.4,1.9
				c-2.5,0.7-4.9,1.9-7.5,2.5c-12.5,2.7-23.7-0.2-33.8-8c-0.6-0.4-1-1.1-1.7-1.2c-1.4-1.7-3-3.1-4-5.1c-0.1-0.2-0.3-0.4-0.4-0.6l0,0
				c-0.8-1.4-1.6-1.5-2.4,0c-2.7,3.8-6,7-9.6,10c-0.5,0.5-1.2,0.8-1.6,1.4c-0.8,0.3-1.4,0.7-1.9,1.4c-0.6,0.1-1.1,0.4-1.4,0.9
				c-0.9,0.3-1.7,0.7-2.4,1.5c-1.4,0.5-2.6,1.1-3.8,1.9c-3.1,1-6.1,2.3-9.3,3c-11.7,2.5-23.3,2.5-34.5-2.4c-0.2-0.1-0.5-0.1-0.7-0.1
				c-0.5-0.5-1.2-0.8-1.9-1c-2.7-1.9-5.4-3.9-8.1-5.8c-1.8-1.9-3.6-3.8-5.3-5.7c-0.4-1-1-0.9-1.6-0.2c-1.9,2.3-4,4.6-5.3,7.3
				c-0.8,0.6-1.2,1.5-1.4,2.4c-2.7,4-4.2,8.5-5.1,13.3c-2,9.9-0.3,19.5,3.2,28.8c0.4,1.1,0.7,2.3,1.5,3.2c0.9,3,2.5,5.6,3.9,8.4
				c0.6,1.2,1.3,2.4,1.9,3.6c0.3,0.2,0.2,0.7,0.5,0.9l0,0c0.3,0.5,0.6,1,0.9,1.5l0,0c0,0.8-0.4,0.8-0.9,0.5h0
				c-0.2-0.1-0.3-0.3-0.5-0.4l0,0c-0.1-0.4-0.7-0.2-0.8-0.6c-11.5-8.6-20.3-19.2-24.7-33.1c-1.8-5.5-2.9-11.1-2.4-17
				c0.6-6.7,2.9-12.9,6.3-18.7c2.6-4.5,5.8-8.6,8.9-12.8c2-2.7,3.9-5.5,5.6-8.4c1.4-2.4,2.4-4.8,2.6-7.6c0.4-5.9,2-11.6,4.3-17.1
				c0.2-0.4,0.3-0.9,0.4-1.4c1.7-3,3.2-6.1,5-9c3.9-6.3,8.7-11.8,14.1-16.8c0.5-0.5,1.2-0.9,1.5-1.5c2.8-1.8,5.2-3.9,8-5.7
				c7.2-4.6,15-7.7,23.5-9.1c2-0.3,4.1-0.4,6.2-0.4c3.2,0,6.4,0.1,9.6,0.2c2.1,0.1,3.4,1.1,3.9,3.2c0.5,1.8,0.5,3.6,0,5.5
				c-1.4,5.3-4.2,9.2-9.7,10.8c-6.7,2-13.3,4.2-19.4,7.6c-1.6,0.9-3.2,1.7-4.6,3c-0.8,0.2-1.4,0.7-1.9,1.4c-1,0.4-1.8,1.1-2.4,2
				c-0.3,0-0.4,0.2-0.5,0.5c-1.6,1-2.8,2.3-3.9,3.9c-1.4,1.3-2.6,2.6-3.3,4.4c-1.6,1.8-2.7,3.9-3.4,6.2c-0.6,0.7-0.9,1.5-1,2.4
				c-0.4,0.4-0.4,0.9-0.5,1.5c-4.3,11.5-0.2,23.9,8.8,31c0.2,0.2,0.6,0.3,0.8,0.4c2.8,2.5,6.2,3.8,9.8,4.5c6.5,1.3,12.8,0.4,19-1.8
				c0.2-0.1,0.4-0.3,0.6-0.4c5.6-1.8,10.1-5.3,13.9-9.8c5.5-6.4,8.4-14,9.9-22.3c1.6-8.9,2.3-17.9,1.5-26.9
				c-0.2-2.5-0.6-5.1-1.2-7.5c-0.5-2.3-0.1-4.4,0.2-6.6c0.1-1,0.9-0.3,1.3-0.4c1.2,0.3,2,1.2,3.1,1.8c1,0.8,2,1.7,2.3,3.1
				c1.1,2.4,2.3,4.7,3.3,7.1c4.9,12,4.6,24,0.3,36c-1.5,4.1-3,8.3-4.5,12.4c-0.4,1.1-0.2,1.7,0.8,2.4c10.5,6.7,24.5,5.7,34-2.2
				c0.2-0.2,0.3-0.4,0.5-0.5c1-0.4,1.7-1.2,2.3-2c8.7-10,10.9-21.5,7.6-34.2c-0.9-3.5-2.9-6.5-5.3-9.2c-3.9-4.2-8.4-7.5-13.3-10.4
				c-0.9-0.5-1.9-1-1-2.3l0,0c0.3-0.5,0.5-1.1,1-1.5l0,0c0.6-1.2,1.6-1.9,2.5-2.9l-0.1,0c0.1-0.3,0.3-0.4,0.5-0.5l0,0
				c0.6-0.1,0.9-0.6,1.4-0.9c2.4-1.9,5.1-2.9,8.1-3.1c5.7-0.3,11.1,0.7,15.8,4.3c1.6,1.3,2.9,3,4.3,4.4c2,3.5,4,7.1,5.4,10.9
				c1.9,5.1,3,10.4,3.7,15.8c0.2,1.6,0.4,3.2,0.7,4.7c0.3,1.6,0.5,1.6,1.9,1.1c4-1.3,6.5-4.7,6.7-9.3c0.1-3.9,0.2-7.8,0.3-11.7
				c0-1.4,0.5-2.6,1.3-3.8c1.1-1.4,1.1-1.4,2.9-0.6c1.5,1.4,2.4,3.1,3.1,5c4,11.2,9.1,21.8,16,31.6c11.6,16.6,27,28.2,46.1,34.7
				c0.2,0.1,0.5,0.1,0.7,0.2c2.5,0.8,2.8,0.6,3.2-1.8c1.2-6.8,2.7-13.6,3.3-20.6c0.3-3.3,0.5-6.7,0.5-10.1c0-12.2-1.9-24.2-5.4-35.9
				c-1.5-4.9-3.3-9.7-5.2-14.4c-0.6-1.4-1-2.9-1.4-4.3c-0.3-1.1-0.7-2.4,0.4-3.3c0.8-0.7,2-0.2,3.4,1.1c4.1,3.8,7.4,8.1,10.2,12.9
				c0.3,0.2,0.2,0.7,0.5,0.9l0,0c0.1,0.2,0.3,0.3,0.4,0.6c5.8,9.9,9.5,20.5,11.5,31.8c1.3,7.2,1.4,14.5,1.1,21.7
				c-0.1,2.7-0.1,5.4-0.4,8.1c-0.5,5.7-3,10.4-6.7,14.5c-0.4,0.5-0.8,1-1.3,1.4c0,0,0,0.2,0,0.4c2.9,1,5.9,1.6,8.9,2.1
				c8.4,1.5,16.9,1.5,25.3,1.3c2.6,0,5.3-0.2,7.9-0.1c1.4,0,2-0.5,2.4-1.8c2.2-6.7,4-13.5,5-20.4c0.8-5.6,1.4-11.3,1.3-16.9
				c-0.1-8.8-1-17.5-2.6-26.2c-2.2-12.3-6-24.2-11.3-35.5c-1.1-2.3-1.5-4.7-1.8-7.2c-0.2-1,0.3-1.3,1.2-1.3c1.3,0,2.5,0.3,3.6,1
				c0.2,0.3,0.7,0.2,0.9,0.5l0,0c0.2,0.1,0.4,0.2,0.5,0.4c2.5,2.1,4.1,4.9,5.9,7.5c8.8,13.2,14,27.7,17.1,43.2
				c2,10,2.7,20.1,1.9,30.3c-0.5,6.6-1.7,13.1-3.8,19.5c-0.4,1.2-0.7,2.5-1,3.7c-0.2,0.7,0.1,1.1,0.9,1c0.5,0,1,0,1.4-0.1
				c7-0.9,14.1-1.8,21.1-2.7c4.5-0.6,9-1.1,13.5-1.6c0.8-0.1,1.6-0.3,2.4-0.4c0.8-0.1,1-0.5,1.2-1.2c2-11.1,4.3-22.1,3.5-33.5
				c-0.9-11.7-3.8-22.8-9.3-33.2c-0.6-1.1-0.7-2.3-0.7-3.5c0-0.9,0.4-1.1,1.2-1c1.2,0.1,2.1,0.5,3,1.2c3.6,3.1,7,6.4,9.7,10.2
				c0.2,0.1,0.3,0.3,0.4,0.5l0,0c0.4,0.2,0.3,0.7,0.6,0.9c5,6.8,7.9,14.4,9.4,22.6c1.7,9.1,1.3,18.3,0.6,27.5
				c-0.1,1.3-0.2,2.7-0.3,4.1c0,0.1,0.1,0.3,0.3,0.6c2.6-0.8,5.3-1.5,8-2.3c8.4-2.4,16.8-4.7,25.1-7c3.2-0.9,6.5-0.9,9.7-0.1
				c2.4,0.6,4.8,0.9,7.3,0.5c3.4-0.7,6-2.5,7.3-5.6c2.9-6.5,4-13.1,0.6-19.9c-0.3-0.8-0.9-1.4-1.5-2c-2.2-2.1-4.7-3.8-7.4-5.2
				c-1.4-0.7-2.8-1.6-4.2-2.3c-0.9-0.5-1-1-0.7-1.9c1-2.7,2.9-4.5,5.5-5.3c3.6-1.1,7.3-1.1,10.9,0.1c3.3,1.1,5.6,3.3,7.1,6.4
				c2,4.2,3.3,8.7,4.7,13c0.5,1.4,1,2.7,1.3,4.1c0.3,1.4,1,1.5,2.2,1.2c4.6-1.3,9.2-2.5,13.8-3.8c2-0.5,4-1.1,6-1.6
				c0.7-0.2,1.4-0.3,2-0.9c-1.1-4.1-3.2-7.6-6.1-10.7c-0.5-0.6-1-1.3-1.6-1.8c-5.9-6.4-11.8-12.8-18-18.9
				c-20.1-19.5-42.5-35.9-67.8-48c-15.4-7.4-31.6-12.1-48.5-14.6c-13.8-2-27.7-2.4-41.6-1.8c-23.1,1-45.7,5.1-67.9,11.7
				c-13.7,4.1-27.1,9-40.2,14.7c-0.9,0.4-1.8,0.6-2.7,1c-1.8,0.6-3.6,0.6-5.4-0.2c-1.2-1.8-1.6-3.8-1.4-5.9
				c1.4-11.1,2.7-22.3,5.4-33.3c2.2-8.9,4.9-17.6,7.8-26.3c0.2-0.7,0.5-1.3,0.6-2.1c0.5-0.4,0.4-0.9,0.5-1.4
				c0.4-0.4,0.4-0.9,0.5-1.4c0.7-1.2,1.2-2.5,1.4-3.9c1-2,1.9-4,2.4-6.2c0.6-0.7,0.9-1.5,1-2.4c1.7-3,2.8-6.3,4.1-9.4
				c3.2-7.1,6.6-14.2,10.2-21.1c0.4-0.7,0.9-1.3,1-2.2l0,0c0.9-1.4,1.4-3,2.4-4.4l0,0c0.7-1.1,1.1-2.4,1.9-3.4l0,0
				c0.2-0.3,0.1-0.8,0.5-1l0,0c0.5-0.8,0.8-1.8,1.4-2.5l0,0c0.8-1.1,1-2.4,2-3.4v0c0.8-0.6,1.2-1.5,1.5-2.4c1-1.2,1.8-2.4,2.4-3.9
				c2.9-4.4,5.9-8.7,8.8-13.1c1.4-2,3-3.9,4.2-6.1c2.2-2.6,4.3-5.3,6.2-8.2c0.7-0.5,1.2-1.1,1.5-1.9c0.8-0.6,1.5-1.4,1.9-2.4
				c1.8-1.8,3.3-3.7,4.8-5.8c1.1-1,2.2-2,2.9-3.4c1.3-1.1,2.5-2.4,3.4-3.8c2-1.9,4-4,5.7-6.2l0,0c0-0.3,0.2-0.5,0.5-0.5l0,0
				c0-0.3,0.2-0.4,0.5-0.5l0,0c3.8-3.6,7.5-7.3,11-11l0,0c0.1-0.3,0.2-0.4,0.5-0.5l0,0c0-0.3,0.2-0.4,0.5-0.5l0,0
				c2.3-1.7,4.3-3.7,6.2-5.8c1.5-0.9,2.7-2.1,3.8-3.4c1.5-0.9,2.7-2.1,3.9-3.3c1.1-0.6,2.1-1.4,2.9-2.4c2.6-1.7,4.9-3.8,7.4-5.7
				c5-3.9,10-7.7,15.2-11.3c0.5-0.4,1.1-0.6,1.5-1.2c2.5-1.4,4.9-3,7.2-4.8c0.6-0.1,1.1-0.4,1.5-0.9c1.4-0.6,2.7-1.4,3.8-2.4
				c0.9-0.3,1.8-0.7,2.4-1.5c0.9-0.3,1.8-0.6,2.4-1.4c0.9-0.3,1.8-0.7,2.4-1.4c1.2-0.5,2.4-1,3.4-1.9c7.7-3.5,15.3-7.1,23-10.6
				c0.2-0.1,0.4-0.3,0.5-0.4c4.1-1.6,8-3.4,12-5.3c2.7-0.7,5.2-1.8,7.7-2.9c2.5-0.6,4.8-1.4,7.2-2.4c3.8-1,7.5-2.1,11.2-3
				c4.1-1,8.2-1.9,12.2-2.8c2.6-0.4,5.2-0.7,7.8-1.1c6.2-0.9,12.3-0.6,18.5,0.1c3.2,1,6.4,1.9,9.6,2.9c1.5,0.9,3.1,1.8,4.8,2.4
				c1.3,1.2,2.8,2,4.3,2.9c1.3,1.3,2.6,2.5,3.8,3.8c0.3,0.8,0.8,1.4,1.5,1.9c0.8,1.4,1.6,2.9,2.4,4.3c1.7,4.6,3,9.3,3.2,14.2
				c0.1,3.8,0.1,7.7,0.1,11.5c0,1.8-0.3,3.7-0.1,5.5c0.5,7.7-0.8,15.3-2.5,22.8c-1.4,6.1-2.8,12.1-4.1,18.2
				c-0.2,0.7-0.2,1.4-0.3,2.1c-0.7,1.9-1.2,3.8-1.4,5.8c-0.5,0.6-0.4,1.3-0.5,1.9c-0.5,0.6-0.4,1.3-0.5,1.9
				c-0.8,1.7-1.2,3.5-1.4,5.3c-1.3,3-2,6.2-3,9.3c-3,8.9-6.3,17.7-10.3,26.1c-0.3,0.6-0.7,1.3-0.7,2c-0.7,0.9-1.2,1.8-1.4,2.9
				c-0.3,0.2-0.5,0.6-0.5,1c-0.3,0.2-0.5,0.6-0.5,1c-0.3,0.2-0.5,0.6-0.5,1c-2,2.9-3.4,6.1-5.2,9.1c-3.5,5.9-7.2,11.7-11.3,17.2
				c-0.5,0.6-0.8,1.3-1.3,2c-1.9,2.1-3.7,4.4-5.3,6.7c-1,0.8-1.8,1.7-2.4,2.9c-1.3,1.1-2.4,2.4-3.4,3.8c-0.3,0.1-0.4,0.3-0.4,0.5
				c-3,3.1-6.1,6.1-9.1,9.2c-1,0.8-1.8,1.7-2.7,2.5c-0.7,0.7-1.4,1.5-2.1,2.2c-1.5,0.9-2.7,2.1-3.9,3.3c-1,0.4-1.7,1.1-2.4,1.9
				c-2.7,1.8-5.2,3.7-7.7,5.8c-3.3,2.1-6.7,4.2-10,6.3c-0.2,0.4-0.7,0.2-0.9,0.6l0,0c-0.3,0.2-0.7,0.3-1-0.1l0,0
				c-0.3-0.6,0.1-1,0.5-1.3l0,0c0.1-0.2,0.2-0.4,0.4-0.5c0.9-1.3,2.3-2.3,3-3.8l0,0c0.5-1.2,1.6-2,2.5-2.9l-0.1,0
				c0.1-0.3,0.3-0.5,0.5-0.6l0,0c0.6-1.2,1.6-1.9,2.5-2.9l0,0c0.6-1.4,2-2.3,3-3.4c3.6-3.6,6.7-7.5,9.8-11.5
				c14.5-18.5,25.4-39.1,33.7-61.1c6.3-16.6,10.8-33.7,14.6-51c1.3-6.1,2.4-12.2,3.2-18.4c1.3-11.4,1.1-22.6-1.8-33.8
				c-0.9-3.3-3-5.4-6.4-6.1c-1.3-0.3-2.5-0.4-3.8-0.5c-15.3-0.8-29.9,2.1-44,7.7c-25.4,9.9-49.6,22.1-71.8,38.1
				c-5.4,3.9-10.6,7.9-15.7,12.3c-0.5,0.4-1,0.8-1.3,1.4c-1.7,1-3.1,2.4-4.4,3.9c-2,1.3-3.6,3.1-5.3,4.8c-3.9,3.7-7.6,7.5-11.3,11.4
				c-0.4,0.5-1,0.9-1.2,1.5l0,0c-0.1,0.3-0.3,0.4-0.5,0.5l0,0c-1.5,1.3-2.8,2.7-3.8,4.3l0,0c-0.7,1.4-2,2.2-2.9,3.4l0,0
				c-0.5,1.2-1.6,1.9-2.4,2.9l0,0c-1.2,1.7-2.4,3.4-3.9,4.8l0,0c-0.4,1-1.3,1.6-1.9,2.5l0,0c-2.3,3.3-4.7,6.5-7.2,9.6l0,0
				c-1.5,2.4-3.1,4.6-4.8,6.8l0,0c-1.4,2.1-2.7,4.3-4.3,6.3l0,0c-1,1.8-2.2,3.6-3.4,5.3l0,0c-0.7,1.4-1.5,2.6-2.4,3.9l0,0
				c-0.5,0.8-0.8,1.7-1.5,2.4l0,0c-0.7,1.1-1,2.4-2,3.4l0,0c-0.7,1.1-1,2.4-2,3.4v0c-1.8,2.2-2.9,4.8-4.1,7.2
				c-6.8,13-12.6,26.3-17.5,40.1c-0.2,0.5-0.3,1.1-0.4,1.6c-2.1,4.7-3.4,9.8-4.7,14.8c-0.3,1-0.5,2-0.7,3c-0.1,0.3-0.2,0.6-0.2,0.9
				c-0.1,1.9,0.7,2.6,2.5,2.1c4.9-1.4,9.8-2.8,14.7-4.2c10.8-3,21.7-5.2,32.7-7c7.5-1.2,15-2.1,22.6-2.7c8.6-0.6,17.2-0.9,25.9-0.4
				c6.9,0.4,13.7,0.9,20.5,1.7c10.3,1.3,20.5,3.3,30.5,6c17.1,4.5,33.3,11.1,48.9,19.4c0.7,0.4,1.3,0.9,2.2,1
				c1.3,1.1,2.8,1.8,4.3,2.5c3.9,2.5,7.8,4.9,11.7,7.4c7,4.6,13.7,9.6,20.2,14.8c0.4,0.3,0.8,0.5,1.2,0.8c0.8,1,1.7,1.8,2.9,2.4
				c1,1.1,2,2.2,3.3,2.9c1.3,1.4,2.7,2.8,4.3,3.8C506.5,323.3,508.7,325.4,511.1,327.3z"/>
			<path class="st0" d="M311.7,238c0.3-0.1,0.4-0.2,0.5-0.5c3.7-3.7,7.4-7.4,11-11h0c0.1-0.2,0.3-0.4,0.5-0.5l0,0
				c1.2-0.9,2-2.2,3.4-2.9l0,0c0.1-0.2,0.3-0.4,0.5-0.5l0,0c0.8-0.7,1.4-1.5,2.4-2l0,0c0.6-0.6,1.2-1.1,1.9-1.5l0,0
				c0.6-0.5,1.2-1.1,2-1.5l0,0c1.8-1.5,3.7-2.8,5.8-3.9l0,0c4.9-2.9,10.4-3.3,15.9-3.5c10.9-0.4,21.7-0.4,32.6-0.3
				c14.3,0.1,28.5,1.2,42.5,4.4c4.3,1,8.7,2.1,13,3.2c1.5,0.9,1.5,0.9,0.8,2.2c-3,5.5-6.8,10.4-11.1,14.9c-1.7,1.8-3.4,3.5-5.2,5.3
				c-1.4,0.8-2.9,1-4.6,0.8c-3.8-0.6-7.5-1.3-11.3-1.7c-7-0.8-14-1.2-21-1.3c-11.1-0.1-22.2,0.4-33.3,0.8
				c-7.1,0.2-14.2,0.8-21.3,1.6c-6.5,0.8-13,1.7-19.5,2.6c-2.9,0.4-5.9,0.8-8.8,1.2c-0.4,0.1-0.9,0.2-1.4-0.2
				c-0.1-0.7,0.8-1,0.8-1.6c0.3-0.1,0.4-0.2,0.5-0.5c1.1-1,2.1-2,2.9-3.3C311.5,238.4,311.6,238.3,311.7,238z"/>
			<path class="st0" d="M228.4,521c-0.3,0.1-0.4,0.2-0.5,0.5c-3.1,1.9-6.4,1.6-9.7,1c-2-0.4-3.1-1.9-4-3.8c-1.5,1.6-2.6,3.5-4.8,3.9
				c-2.1,0.4-4.1,0.4-6.2,0c-2.3-0.4-3.5-2-4.4-3.8c-0.6,0.2-0.8,0.6-1,0.9c-1.1,1.8-2.7,2.8-4.9,3c-2.1,0.2-4.1,0.1-6.2,0.2
				c-3.5,0-7,0-10.5,0c-2.4,0-4.6-0.3-6.7-1.4c-0.1-0.3-0.2-0.4-0.5-0.5c0-0.3-0.2-0.4-0.4-0.5c-0.2-0.6-0.4-1.2-1-1.7
				c-0.9,1.1-1.7,2.1-2.6,3.1c-4.1,1.4-8.3,1.1-12.4,0.6c-2.2-0.3-3.6-1.8-4.5-3.8c-0.8,0.4-1.1,1.1-1.3,1.8
				c-0.6,0.4-1.1,0.8-1.5,1.4c-0.4,0-0.7,0.1-1,0.5c-3.4,0.7-6.8,0.4-10.3,0.4c-4.1,0-8.1,0-12.2,0c-3,0-5.7-0.8-7.6-3.3
				c-0.7-1.5-0.8-1.6-1.6-0.6c-2,2.5-4.6,3.5-7.7,3.7c-4.8,0.4-9.6,0.1-14.4,0.2c-5,0.1-6.1,0.9-6.4,5.9c-0.2,4.4-0.1,8.8-0.1,13.2
				c0,0.7,0.3,1.6-0.6,1.8c-1.1,0.3-2.2,0.4-3.3-0.1c-0.4-0.2-0.4-0.7-0.4-1.1c0-5.4,0-10.7,0.1-16.1c0-1.3,0.5-2.7,0.8-4
				c2.1-3.4,5.2-4.7,9.1-4.5c2.3,0.1,2.3,0,2.3-2.2c0-1.9,0-3.8,0-5.8c0-4.5,2-8.1,5.4-11c3-1.5,6.1-2.2,9.4-1.2
				c1,0.3,1.9,0.8,2.9,1.2c1,1,1.9,1.9,2.9,2.8c1.6,3,2.3,6.1,2.2,9.5c0,1.3,0.1,2.6,0.7,3.7c1.1,2,2.9,3,5.1,3
				c6.7,0.1,13.4,0.1,20.1,0c2.1,0,3-1,3.1-3.2c0.2-2.5,0.1-5,0.1-7.4c0-1.8,0-3.7,0-5.5c0-1.2,0.4-1.8,1.6-1.7c0.4,0,0.8,0,1.2,0
				c1.2-0.1,1.5,0.5,1.5,1.6c0,2.6,0,5.1,0,7.7c0,1.2,0.1,2.4,0.2,3.6c0.4,2.8,2.2,4.7,5,4.9c2.3,0.2,4.6,0.1,7,0
				c1.7-0.1,2.3-0.7,2.8-2.4c0.3-0.9,0.3-1.7,0.3-2.6c0-3.5,0-7,0-10.5c0-2.2,0-2.2,2.3-2.2c0.2,0,0.3,0,0.5,0
				c1.1-0.1,1.6,0.3,1.5,1.5c0,2.9,0,5.8,0,8.6c0,1,0,1.9,0.3,2.8c0.7,3.1,2.5,4.7,5.7,4.8c2.9,0.1,5.8,0,8.6,0c2.8,0,5.6,0,8.4,0
				c2.5,0,3.2-0.8,3.6-3.2c0.3-2.2,0.1-4.5,0.2-6.7c0-0.7-0.3-1.6,0.6-1.8c1.1-0.2,2.2-0.4,3.3,0.1c0.5,0.2,0.4,0.8,0.4,1.3
				c0,1.6,0,3.2,0.1,4.8c0.1,1.2,0.3,2.4,1.3,3.2c1.7,2.2,5.6,3.1,8,2c0.6-0.3,1-0.7,1.3-1.4c0.3-1,0.5-2,0.5-3c0-2.6,0-5.3,0-7.9
				c0-1.7,0-1.7,1.7-1.8c0.4,0,0.8,0,1.2,0c1.1-0.1,1.4,0.5,1.4,1.4c0,2.2,0,4.3,0.1,6.4c0.1,1.5,0.1,3,1.3,4.2
				c0,0.3,0.2,0.5,0.4,0.5c0.1,0.3,0.2,0.4,0.5,0.5c2.2,1.8,4.7,1.5,7.3,1.1c0.9-0.2,1.3-0.8,1.5-1.7c0.3-1.1,0.4-2.2,0.4-3.3
				c0-3.6,0-7.2,0-10.8c0-1.7,0.1-1.7,1.8-1.7c0.3,0,0.6,0,1,0c1.2-0.1,1.5,0.4,1.5,1.5c0,2.6,0,5.3,0,7.9c0,1,0,1.9,0.1,2.9
				c0.3,3.3,2.1,5.2,5.3,5.4c2.2,0.2,4.5,0.1,6.7,0c1.8-0.1,2.4-0.7,2.9-2.3c0.3-0.9,0.3-1.9,0.3-2.8c0-3.4,0-6.9,0-10.3
				c0-2.3,0-2.3,2.4-2.3c1.9,0,1.9,0,1.9,1.8c0,2.9,0,5.8,0,8.6c0,0.8,0,1.6,0.2,2.4c0.6,3.1,2.4,4.8,5.6,4.9c2.3,0.1,4.6,0,7,0.1
				c1.3,0,1.6-0.6,1.6-1.7c0-3.9,0-7.8,0-11.8c0-7.4,0-14.9,0-22.3c0-0.7-0.3-1.5,0.4-2c0.3-0.2,3.3-0.2,3.5,0
				c0.3,0.2,0.4,0.5,0.4,0.8c0,0.6,0,1.1,0,1.7c0,12.3,0,24.6,0,37c0,0.5,0,1,0,1.4c0,1-0.4,1.5-1.4,1.5c-3.8,0-7.5,0-11.3-0.1
				c-2.8-0.1-5.1-1.2-6.3-3.9c-0.3,0.1-0.5,0.1-0.5,0.2c-1.5,3-4.1,3.8-7.2,3.8c-1.6,0-3.2,0-4.8,0c-3.1-0.1-5.9-0.7-7.2-4.2
				C229.1,519.4,228.7,520.2,228.4,521z"/>
			<path class="st0" d="M308.3,37.3c0.3-0.1,0.4-0.2,0.5-0.4c2.5-2.1,5.1-4.3,7.6-6.4c6.1-5.2,12.5-10.1,19.3-14.4
				c0.3-0.2,0.6-0.5,0.9-0.8c1.7-0.7,3.3-1.8,4.8-2.9c1.2-0.5,2.4-1,3.4-1.9c0.4,0,0.7-0.1,0.9-0.5c0.4,0,0.8-0.1,1-0.5
				c1.4-0.4,2.7-1.1,3.9-1.9c0.4,0,0.7-0.1,1-0.5c1.6-0.4,3-1.1,4.3-1.9c0.9-0.1,1.7-0.4,2.4-1c2-0.5,3.9-1.1,5.8-1.9
				c4.7-1.2,9.5-1.3,14.3-0.9c0.6,0.4,1.2,0.5,1.9,0.5c0.4,0.4,0.9,0.5,1.4,0.5c1.6,0.8,3.2,1.6,4.8,2.4c0.3,0.5,0.8,0.9,1.4,1
				c0.7,0.8,1.4,1.5,2.3,2c0.1,0.3,0.2,0.4,0.5,0.4c0.1,0.3,0.2,0.4,0.5,0.5c0,0.3,0.2,0.4,0.5,0.5c0,0.3,0.2,0.4,0.5,0.5
				c0.4,1,1.2,1.7,2,2.4c0.3,0.8,0.7,1.4,1.4,2c0.1,0.6,0.4,1.1,0.9,1.5c1.6,3.5,3.4,6.9,4.6,10.5c0.5,1.6,0.6,2.9-0.7,4.2
				c-0.4,0-0.7,0.1-1,0.5c-0.5,0.2-1.1,0.3-1.6,0.6c-7.8,3.9-15.5,7.7-23.2,11.6c-0.4,0.2-0.9,0.4-1.1,0.8c-2.6,1-5,2.3-7.2,3.9
				c-1.3,0.4-2.4,1-3.4,1.9c-2.6,1.1-5,2.6-7.2,4.4c-2.9,1.5-5.6,3.3-8.2,5.3c-2.2,1.2-4.4,2.6-6.2,4.3c-2.6,1.5-5,3.3-7.2,5.3
				c-1,0.4-1.8,1.1-2.4,1.9c-1.8,1-3.4,2.3-4.8,3.8c-1,0.4-1.8,1.1-2.4,2c-1.3,0.7-2.4,1.7-3.4,2.9c-1.7,1-3.1,2.4-4.3,3.8
				c-2.3,1.6-4.4,3.6-6.2,5.8c-3,2.4-5.7,5.1-8.2,8.1l0,0c0,0.3-0.2,0.4-0.5,0.5l0,0c-2.1,1.9-4.1,3.9-5.8,6.2l0,0
				c0,0.3-0.2,0.4-0.5,0.5v0c-2.4,2.1-4.4,4.6-6.2,7.2c-1.5,1.4-2.8,3-3.9,4.8c-2.2,2.2-3.9,4.8-5.8,7.2
				c-3.9,5.2-7.6,10.6-11.1,16.1c-0.3,0.5-0.7,1-0.9,1.7c0,0.1,0,0.2-0.1,0.3c-1.3,1.9-2.3,4.1-3.8,6v0c-1.4,1.8-2.5,3.7-3.3,5.8
				c-1.1,1.3-1.8,2.8-2.4,4.3h0c-0.2,0.3-0.1,0.8-0.5,1v0c-1.4,1.6-2.2,3.7-3.1,5.6c-1.9,3.9-4.1,7.6-5.5,11.6
				c-2.5,4.4-4.2,9.1-6.1,13.7c-4.2,10.2-7.9,20.5-11.1,31c-0.2,0.8-0.5,1.5-0.5,2.3c-0.8,1.7-1.2,3.5-1.5,5.3
				c-1.7,4.6-2.6,9.4-3.7,14.1c-1.7,7.1-3.2,14.2-4.2,21.4c-0.7,4.8-1.1,9.7-1.6,14.5c-0.4,3.5-0.7,7.1-1.1,10.7
				c-0.7-0.2-0.7-0.8-0.7-1.2c-0.7-6.1-2-12.1-2.2-18.3c-0.5-12.3-1.1-24.6,0.2-36.9c2-19.2,5-38.3,9.8-57.1
				c0.9-3.5,2.1-6.9,2.8-10.4c1.4-3.2,2.2-6.6,3.4-9.9c3.3-9.4,7.1-18.6,11.2-27.6c0.3-0.7,0.8-1.4,0.9-2.2c2.1-3.8,4-7.6,5.7-11.5
				c0.4-0.2,0.5-0.6,0.5-0.9c0.4-0.2,0.5-0.6,0.5-0.9c1-1.3,1.8-2.8,2.4-4.4c0.4-0.2,0.5-0.5,0.5-0.9c0.9-1,1.5-2.1,1.9-3.4
				c0.5-0.4,0.8-0.9,0.9-1.5c0.4-0.2,0.5-0.5,0.5-0.9c0.7-0.7,1.1-1.5,1.4-2.4c0.5-0.4,0.8-0.9,0.9-1.5c0.4-0.2,0.5-0.5,0.6-0.9
				c0.5-0.4,0.8-0.9,0.9-1.5c0.7-0.6,1.2-1.4,1.5-2.4c0.5-0.4,0.8-0.8,0.9-1.5c0.5-0.4,0.8-0.8,0.9-1.5c1.5-1.8,2.8-3.7,3.9-5.7
				c2.2-2.9,4.3-5.9,6.5-8.8c4.4-5.8,9-11.4,13.8-16.8c0.5-0.5,1.1-1,1.3-1.7c3-2.9,5.9-5.9,8.6-9.1l0,0c0-0.3,0.2-0.4,0.5-0.5l0,0
				c0.9-0.4,1.5-1.1,1.9-1.9C303.7,42,306,39.7,308.3,37.3z"/>
			<path class="st0" d="M323.7,568c-0.1-0.9-0.4-1.7-1-2.4c-0.8-2.8-2.1-5.4-3.3-8.2c-0.9,0.6-0.6,1.2-0.6,1.7c0,6.7,0,13.4,0,20.1
				c0,1.7-0.1,1.7-1.7,1.8c-1.1,0-1.5-0.3-1.5-1.5c0-8.7,0-17.4,0-26.1c0-1.1,0.4-1.6,1.5-1.5c0.1,0,0.2,0,0.2,0
				c2-0.3,3.6,0.2,4.3,2.3c0.5,2,1.4,3.9,2.4,5.7c0.2,1.2,0.7,2.3,1.4,3.4c0.2,1.2,0.7,2.3,1.4,3.4c0.8,2.7,2.1,5.1,3.2,7.9
				c1-0.9,1.2-1.9,1.6-2.7c2.6-6,5.1-12,7.7-18.1c0.3-0.7,0.4-1.7,1.3-1.8c1.2-0.1,2.4,0,3.6,0c0.3,0,0.5,0.4,0.5,0.7
				c0,0.6,0,1.1,0,1.7c0,8,0,16,0,24c0,0.2,0,0.5,0,0.7c0,1.8-0.2,1.8-1.6,1.9c-1.5,0.1-1.5-0.8-1.5-1.8c0-5.1,0-10.2,0-15.4
				c0-1.6,0-3.2,0-4.8c0-0.4,0.1-0.8-0.5-1c-0.9,0.3-1,1.4-1.3,2.1c-2.7,6.3-5.3,12.5-7.9,18.8c-0.1,0.4-0.3,0.7-0.5,1.1
				c-0.2,0.7-0.7,1-1.4,1c-0.8,0-1.1-0.5-1.4-1.1c-0.8-1.9-1.6-3.8-2.4-5.8c-0.4-1-0.7-2-1.3-2.8C324.8,570.2,324.4,569,323.7,568z"
				/>
			<path class="st0" d="M442.2,324.2c2.7,0.1,5,1.1,7.1,2.6c2.2,1.5,4,3.5,5.2,5.9c0.8,1.6,0.8,1.6-0.8,2.4c-2.6,1.2-4.7,3-5.5,5.9
				c-0.3,0.9-0.3,1.9-0.3,2.8c0,1-0.5,1.3-1.3,1.2c-0.1,0-0.2,0-0.2,0c-4.1-0.1-11.1-5.1-12.7-8.9
				C431.8,331.6,435.4,324.3,442.2,324.2z"/>
			<path class="st0" d="M452.1,346.9c0-4.8,4.6-9.6,9.3-9.8c1.2,0,2.2,0.3,3.2,0.8c3.6,1.8,6.4,4.4,8.5,7.8c1.1,1.8,1.3,3.7,0.7,5.7
				c-1.4,4.4-6.3,8.8-12.5,5.9c-3.1-1.5-5.7-3.5-7.7-6.3C452.7,349.8,452,348.5,452.1,346.9z"/>
			<path class="st0" d="M519.8,581c-5.7,0-11.3,0.1-17,0.1c-1.5,0-1.5-0.1-1.5-2c0-7.3,0-14.5,0-21.8c0-1.3,0-2.6,0-3.8
				c0-1,0.3-1.5,1.4-1.5c5,0,10.1,0,15.1,0c1.3,0,1.3,0.8,1.3,1.8c0,1-0.5,1.4-1.5,1.4c-3.7,0-7.4,0-11,0c-2,0-2,0-2,2
				c0,1.9,0,3.8,0,5.8c0,1.1,0.4,1.5,1.6,1.5c3,0,6.1,0,9.1,0c0.6,0,1.1,0,1.7,0c1.2,0,1.2,0.8,1.2,1.6c0,1-0.2,1.5-1.3,1.5
				c-3.4,0-6.7,0-10.1,0c-2.1,0-2.1,0-2.2,2.1c0,2.2,0,4.3,0,6.5c0,1.8,0.1,1.9,1.9,1.9c3.7,0,7.3,0,11,0c2.3,0,2.3,0,2.4,2.3
				C519.7,580.5,519.8,580.8,519.8,581C519.8,581,519.8,581,519.8,581z"/>
			<path class="st0" d="M118.5,260.5c0.1,0.6,0.5,1.1,1,1.4c0.6,1.3,1.3,2.4,2.3,3.4c0.6,1.4,1.3,2.7,2.4,3.8c1.4,2.8,3,5.5,4.8,8.2
				c1.5,3.2,3.1,6.3,4.5,9.5c3.5,7.5,6.4,15.3,8.7,23.3c0.1,0.5,0.3,0.9,0.4,1.4c1,4.4-0.5,7.3-4.6,9c-2,0.8-3.4,0.4-4.6-1.4
				c-0.7-1.1-1.1-2.3-1.5-3.5c-3.1-9.8-5.9-19.7-9.4-29.4c-3.2-9-7.6-17.4-13.1-25.2c-0.4-0.6-0.8-1.2-1.4-1.6
				c-0.6-1.5-1.8-2.6-2.7-3.9c-4-5.3-8.6-10.1-13.6-14.5c-0.2-0.2-0.5-0.4-0.7-0.5c-0.8,0.3-0.9,1-1.2,1.5c-2.3,4-6.1,5.9-10.6,5.3
				c-3.1-0.4-6.1-1.4-9-2.3l0,0c-3.8-1.8-7.1-4.2-9.1-8.1c-0.3-0.7-0.6-1.4-1-2.2c-2.2-4.8-1.4-9.1,2.5-12.7
				c0.3-0.3,0.6-0.6,0.8-0.8c0.8-0.4,1.6-0.8,2.4-1.1c3.1-1.2,6.1-1.1,9.1,0.2c0.9,0.4,1.8,1.1,2.8,1.3c0.4,0.1,0.7,0.2,1,0.5l0,0
				c0.8,0.5,1.8,0.8,2.4,1.5l0,0c0.8,0.5,1.7,0.8,2.4,1.5l0,0c0.6,0.3,1.1,0.6,1.6,0.9c0.9,0.8,2,1.1,2.7,2l0,0
				c0.8,0.3,1.4,0.9,2,1.5l0,0c0.2,0.1,0.4,0.1,0.6,0.3c0.1,0.1,0.1,0.1,0.2,0.2c0.5,0.5,1,1,1.6,1.5c0.2,0.1,0.4,0.2,0.6,0.2
				c0.2,0.1,0.3,0.3,0.4,0.4c0,0.1,0,0.2,0,0.3c4.2,4.1,8.4,8.3,12.5,12.4v0c0.2,0.1,0.4,0.3,0.5,0.5h0c0.2,0.1,0.4,0.3,0.5,0.5l0,0
				c0.3,0,0.4,0.3,0.5,0.5l0,0c0.6,1.1,1.4,2.1,2.5,2.8v0c0.2,0.1,0.4,0.3,0.5,0.5h0c0.3,0.1,0.4,0.3,0.5,0.5l0,0
				c0.3,0.8,0.8,1.4,1.5,1.8v0c0.2,0.1,0.4,0.3,0.5,0.5l0,0c0.3,0.8,0.8,1.4,1.5,1.9v0c0.2,0.1,0.4,0.3,0.5,0.5l0,0
				c0.3,0.8,0.8,1.4,1.4,1.9c0.3,0.8,0.8,1.4,1.4,1.9C117.3,259.4,117.8,260,118.5,260.5z"/>
			<path class="st0" d="M282.8,566.5c0-4.1,0-8.2,0-12.2c0-2.3,0-2.3,2.2-2.3c4.5,0,9,0,13.4,0c2,0,2.1,0.1,2.1,1.7
				c0,1.4-0.1,1.5-2,1.5c-3.5,0-7,0-10.5,0c-1.9,0-1.9,0-1.9,1.8c0,1.9,0,3.8,0,5.8c0,1.3,0.5,1.7,1.7,1.7c3.4,0,6.9,0,10.3,0
				c1.4,0,1.6,0.3,1.6,1.7c0,1.3-0.7,1.4-1.7,1.4c-3.3,0-6.5,0-9.8,0c-2,0-2,0-2,2c0,2.1,0,4.2,0,6.2c0,2.3,0,2.3,2.2,2.2
				c3.8,0,7.5,0,11.3,0c1.7,0,1.9,0.3,1.8,2c0,1-0.5,1.2-1.3,1.2c-5.3,0-10.5,0-15.8,0c-1.3,0-1.4-0.6-1.4-1.6
				C282.8,575.1,282.8,570.8,282.8,566.5z"/>
			<path class="st0" d="M380.4,566.4c0-4.2,0-8.5,0-12.7c0-1.5,1.4-2.3,2.8-1.6c0.7,0.3,0.5,0.9,0.5,1.5c0,2.6,0,5.3,0,7.9
				c0,0.6,0,1.1,0,1.7c0,0.9,0.4,1.3,1.3,1.3c4.2,0,8.5,0,12.7,0c1.1,0,1.4-0.5,1.4-1.5c0-3,0-6.1,0-9.1c0-1.7,0.3-1.9,1.9-1.9
				c0.9,0,1.3,0.4,1.3,1.3c0,0.2,0,0.3,0,0.5c0,8.5,0,17.1,0,25.6c0,1.7-0.2,1.7-1.8,1.7c-1.2,0-1.5-0.5-1.5-1.6c0-3.3,0-6.5,0-9.8
				c0-2.1,0-2.2-2.1-2.2c-3.8,0-7.5,0-11.3,0c-2,0-2,0-2,2c0,3.3,0,6.5,0,9.8c0,1.6-1.2,2.3-2.6,1.7c-0.5-0.2-0.5-0.5-0.6-0.9
				c0-0.6,0-1.1,0-1.7C380.4,574.4,380.4,570.4,380.4,566.4z"/>
			<path class="st0" d="M324.1,529.8c0.6-0.1,1.1-0.4,1.4-1h0c0.1-0.2,0.3-0.4,0.5-0.5l0,0c0.1-0.3,0.2-0.4,0.5-0.5h0
				c0.1-0.3,0.3-0.4,0.5-0.5v0c1.7-1.7,2.2-3.8,2.3-6.1c0.1-2.4,0.1-4.8,0.1-7.2c0-10.3,0-20.6,0-30.9c0-0.6,0-1.1,0-1.7
				c0-1,0.5-1.3,1.3-1.2c1,0,1.9,0.1,2.9,0.1c0,10.1,0,20.1,0,30.2c0,5.8,1.9,7.6,7.6,7.6c12.1,0,24.1,0,36.2,0c0.7,0,1.4,0,2,0
				c0.4-0.8,0-1.2-0.2-1.7c-1.1-2.5-1.2-5.1-1.7-7.7c-0.2-1-0.4-1.9-0.7-2.8c-0.8-2-2.4-3.2-4.6-3.3c-1.9-0.1-3.7,0.2-5.4,0.8
				c-0.9,0.3-1.3,0.1-1.5-0.8c-0.8-3.4-1-3.2,2.3-4c1.2-0.3,2.3-0.5,3.5-0.7c2.6-0.4,4.9,0.3,7.1,1.5c0.4,0.6,0.9,1.1,1.4,1.4
				c1.7,2.6,2.3,5.5,2.5,8.5c0,0.5-0.1,1.1,0.3,1.6c0,1.1,0.3,2.2,0.7,3.3c1.1,2.8,2.6,3.9,5.6,3.9c2.1,0,4.2,0,6.2,0
				c1.3,0,1.7-0.5,1.7-1.7c0-4.5,0-9,0-13.4c0-2.6,1.2-3.5,3.7-2.7c0.4,0.1,0.7,0.4,0.7,0.8c0,0.4,0,0.8,0,1.2c0,6.2,0,12.3,0,18.5
				c0,1.8,0,1.9-1.9,1.9c-3.7,0-7.3,0-11,0c-1.4,0-2.9-0.1-4.2-0.8c-0.2-0.3-0.7-0.1-0.9-0.5l0,0c-0.2-0.1-0.4-0.3-0.6-0.4
				c-0.3-0.2-0.6-0.5-0.9-0.7c-1.1-0.9-1.1-0.9-2,0.6c-1.3,1.5-3,1.9-5,1.9c-11.3,0-22.5,0-33.8,0c-1.4,0-2.9-0.3-4.3-0.4
				c-0.9-0.7-1.8-1.5-2.8-2.3c-0.2,1.4-0.4,2.6-0.7,3.9c-1.2,6.3-6.1,11-12.5,11.8c-4.9,0.7-9.5,0-13.7-2.8c-0.5-0.6-1-1.2-1.5-1.8
				c-0.4-0.4-0.5-1-1-1.4c-3.3-5.9-2.9-11.8-0.1-17.7c0.4-0.8,0.8-1.1,1.6-0.6c0.4,0.3,0.9,0.4,1.3,0.6c0.9,0.7,1.2,1.4,0.6,2.6
				c-1.3,2.7-1.7,5.7-1.1,8.6c0.4,2.2,1.3,4.3,3.3,5.6c2.8,2.7,6.2,2.9,9.7,2.5C321.3,531.2,322.9,531,324.1,529.8z"/>
			<path class="st0" d="M46.1,247.5c1.3,0.9,2.8,1.5,4.3,2c3.2,1.6,6.4,3.2,9.6,4.8c2.9,1.9,5.9,3.7,9.1,5.3
				c2.7,1.9,5.5,3.9,8.2,5.8c8.9,6.5,16.6,14.3,24.2,22.1c2,2.1,4,4.1,6,6.1c0.9,1.5,2.3,2.6,3.4,3.9c2.3,2.8,2.2,5.8-0.4,8.5
				c-0.5,0.3-1,0.6-1.5,0.9c-1.5,1-3.1,0.7-4.7,0.4c-0.4-0.5-0.8-0.8-1.4-1c0-0.3-0.2-0.4-0.5-0.5c-0.3-0.8-0.8-1.4-1.4-1.9
				c-0.1-0.6-0.4-1.1-1-1.4c-0.5-1.3-1.3-2.4-2.4-3.4c-1.1-2.1-2.6-4.1-4.3-5.8c-1.3-2.1-2.9-4.1-4.8-5.8c-1.4-2.2-3.4-3.9-5.2-5.8
				c-0.7-0.8-1.4-1.5-2.1-2.2c-0.9-0.9-1.8-1.8-2.8-2.5c-0.1-0.1-0.3-0.1-0.4-0.1c-0.8-1-1.7-1.9-2.9-2.4c-1.1-1.2-2.3-2.2-3.8-2.9
				c-1-1-2.1-1.9-3.4-2.4l0,0c-1.9-1-3.6-2.2-5.3-3.4l0,0c-1.6-1.5-3.7-2.5-5.6-3.6c-5.6-3.3-11.2-6.4-16.9-9.5
				c-0.6-0.4-1.2-0.7-2-0.7c-1.8-0.4-2.4-0.2-3.1,1.2c-0.4,0.8-0.6,1.6-0.8,2.5c-0.6,2.8-2.3,4.8-4.8,5.9
				c-8.1,3.4-18.4,2.6-25.6-4.6c-3.4-3.4-3.6-8.4-1.9-12c1.4-3,3.8-5,7.1-5.4c8-1.1,15.8-0.4,23.4,2.5c4,1.5,7.9,3.1,11.8,4.6
				C44.9,247.2,45.5,247.3,46.1,247.5z"/>
			<path class="st0" d="M250,556.7c0.1,0.6,0.4,1.1,1,1.4c0.2,0.4,0.4,0.9,0.6,1.3c0.3,0.5,0.5,1,1,1.4c1.7,2,2.8,4.4,4.6,6.4
				c0.1,0.6,0.5,1.1,1,1.4c0.1,0.6,0.4,1.1,1,1.4c1,2,2.5,3.8,3.9,5.9c0.6-1.1,0.4-1.9,0.4-2.6c0-6.5,0-13.1,0-19.6
				c0-1.7,0.3-1.9,2-1.8c0.8,0,1.2,0.3,1.2,1.1c0,0.5,0,1,0,1.4c0,8,0,16,0,23.9c0,0.6,0,1.1,0,1.7c0,0.5-0.3,0.9-0.9,0.9
				c-1.7,0-3.4,0.3-4.4-1.5c-0.1-0.6-0.4-1.1-1-1.4c-0.1-0.6-0.5-1.1-1-1.4c-0.9-1.8-2-3.4-3.3-4.8c-1.9-3.2-3.9-6.3-6.2-9.1
				c-0.9-2-2.4-3.6-3.5-5.4c-0.8,0.5-0.5,1.2-0.5,1.8c0,6.7,0,13.4,0,20.1c0,1.8-0.1,1.9-1.6,1.9c-1.5,0-1.6-0.1-1.6-1.6
				c0-3.2,0-6.4,0-9.6c0-5.3,0-10.7,0-16.1c0-1.8,0-1.7,1.7-1.9c1.7-0.2,2.9,0.4,3.7,1.9C248.5,554.9,249,556,250,556.7z"/>
			<path class="st0" d="M155.1,568.2c0,3.7,0,7.4,0,11c0,1.6-1.1,2.3-2.6,1.7c-0.5-0.2-0.6-0.5-0.6-0.9c0-0.6,0-1.1,0-1.7
				c0-6.7,0-13.4,0-20.2c0-0.6,0-1.1,0-1.7c0.1-1-0.4-1.5-1.4-1.4c-2.1,0-4.2,0-6.2,0c-1.6,0-1.7-0.2-1.7-1.8c0-1.1,0.5-1.4,1.5-1.4
				c2.6,0,5.1,0,7.7,0c3.7,0,7.4,0,11,0c1.8,0,2,0.2,1.9,1.6c0,1.4-0.2,1.5-2,1.5c-1.4,0-2.9,0-4.3,0c-3.6,0-3.1-0.3-3.1,3.3
				C155.1,561.7,155.1,565,155.1,568.2z"/>
			<path class="st0" d="M192.4,435.8c2.7,2.8,2.9,6.3,2.4,9.9c-0.5,3.9-3.7,6.7-7.9,7.1c-3.1,0.3-6.2,0.1-9.3-0.7
				c-5.1-1.4-7.6-5.8-6.2-10.9c0.5-1.8,1.3-3.4,2.6-4.8c1.5-1.5,3.4-2.3,5.6-2.3c2.8,0.1,5.6,0.3,8.4,0.4
				C189.6,434.6,191,435.3,192.4,435.8C192.4,435.8,192.4,435.8,192.4,435.8z"/>
			<path class="st0" d="M276.7,501.7c0-6.2,0-12.3,0-18.5c0-0.6,0-1.1,0-1.7c0-0.8,0.3-1.2,1.1-1.2c0.4,0,0.8,0,1.2,0
				c1.8,0,1.9,0,1.9,1.9c0,12.9,0,25.7,0,38.6c0,0.7,0.3,1.7-0.5,1.9c-1,0.3-2.2,0.4-3.3-0.1c-0.6-0.3-0.4-1-0.4-1.5
				c0-2.5,0-5,0-7.4C276.7,509.6,276.7,505.7,276.7,501.7z"/>
			<path class="st0" d="M211.8,565.1c0-0.3-0.2-0.4-0.5-0.5c-1.9-3-2.1-6.2-0.5-9.4c0.8-0.8,1.6-1.6,2.4-2.4
				c2.5-1.2,5.1-1.8,7.9-1.5c2,0.3,3.7,0.9,5.2,2.3c0.4,0.4,0.8,0.8,0.7,1.4c-0.3,0-0.4,0.2-0.5,0.4c-0.3,0.2-0.6,0.3-0.8,0.5
				c-0.7,0.7-1.2,0.5-2-0.1c-2.5-2-5.5-2.1-8.3-0.4c-3,2-3,5.9,0.1,7.7c2.2,1.2,4.6,2,7.1,2.6c0.5,0.3,0.9,0.6,1.4,0.9
				c5.1,2.7,4.9,10.8-0.3,13.7c-4.6,2.5-12.4,1.4-14.5-2.8c0.2-0.1,0.6-0.3,0.9-0.5c1.5-1.3,1.5-1.3,3,0c2.4,2,6.1,2.3,8.8,0.7
				c1.6-1,2.5-2.4,2.4-4.4c-0.1-1.9-1-3.2-2.7-3.9c-1.3-0.6-2.7-1.1-4-1.5C215.6,567.2,213.6,566.3,211.8,565.1z"/>
			<path class="st0" d="M120.1,566.7c0-4.2,0-8.5,0-12.7c0-1.9,0.8-2.5,2.5-2c0.4,0.1,0.7,0.3,0.7,0.8c0,0.6,0,1.3,0,1.9
				c0,7,0,13.9,0,20.8c0,2.3,0,2.3,2.4,2.3c3,0,6.1,0,9.1,0c1.5,0,1.5,0.2,1.6,1.7c0,1.2-0.5,1.5-1.6,1.5c-4.4,0-8.8,0-13.2,0
				c-1.3,0-1.6-0.5-1.6-1.7C120.2,575.2,120.1,570.9,120.1,566.7z"/>
			<path class="st0" d="M426.4,532.5c-0.1-0.3-0.2-0.4-0.5-0.5c-2.3-2.9-3.5-6.1-3.8-9.8c-0.1-2,0.3-3.9,0.4-5.9
				c0.8-1.7,1.2-3.6,2.4-5.2c1.2,0.1,2,1.2,3.1,1.4c0.1,0.3,0.2,0.4,0.5,0.4c-1.3,2.8-2.2,5.6-1.9,8.7c0.3,3.5,1.5,6.4,4.8,8.1
				c0.5,0.6,1.2,0.9,2,0.9c2,0.8,4.2,1.1,6.3,0.5c2-0.1,3.8-0.5,5.3-2h0c0.1-0.2,0.3-0.4,0.5-0.5l0,0c0.7-0.2,1.2-0.7,1.4-1.4
				c0.3-0.1,0.4-0.3,0.4-0.5c0.4-0.2,0.5-0.5,0.6-0.9c0.8-0.6,0.9-1.5,1-2.4c0.7-1.5,0.5-3.1,0.5-4.7c0-11.7,0-23.3,0-35
				c0-0.5,0-1,0-1.4c0-2.1,0-2.1,2.1-2.1c2,0,2.1,0,2.1,2.2c0,9.4,0,18.8,0,28.3c0,1.7,0.1,3.3,0.9,4.9c0.3,0.6,0.7,1.1,1.4,1.3
				c1.1,1.2,2.5,1.3,4,1.3c7.9,0,15.8,0,23.7,0c2.5,0,3.5-1,3.6-3.5c0.1-2.2,0-4.3,0-6.5c0-1.9,0-1.9,2-2c0.3,0,0.6,0,1,0
				c1.1-0.1,1.4,0.5,1.3,1.5c0,1.3-0.1,2.6,0,3.8c0.2,1.7,0.2,3.5,1.8,4.8c0.3,0.6,0.8,0.9,1.4,1c1.7,1.2,3.7,0.9,5.5,0.7
				c1-0.1,1.7-0.8,2-1.9c0.3-0.9,0.4-1.9,0.4-2.8c0-2.6,0-5.3,0-7.9c0-1.3,0.5-1.6,1.7-1.7c2.7,0,2.6-0.1,2.7,2.5
				c0.1,2.2-0.4,4.5,0.3,6.6c0,0.7,0,1.4,0.5,1.9c0.6,1.8,1.9,2.7,3.6,3.1c1.2,0.3,2.4,0.3,3.6,0.2c2.4-0.1,3.2-0.9,3.4-3.4
				c0.1-1,0.1-1.9,0.1-2.9c0-3.2,0-6.4,0-9.6c0-1.9,0-1.9,1.8-1.9c0.2,0,0.3,0,0.5,0c1.9,0,1.9,0,1.9,1.8c0,3,0,6.1,0,9.1
				c0,1.8,0.2,3.7,1.8,5l0,0c0.3,0,0.4,0.2,0.5,0.5l0,0c0.8,1,2,1.3,3.2,1.3c3,0.1,6,0.1,9,0.1c0.9,0,1.3-0.3,0.5-1.1
				c0-0.3-0.2-0.4-0.5-0.5c-1.8-2.7-3-5.5-2.8-8.9c0.1-1.5,0.7-2.9,0.9-4.4c0.3-0.2,0.5-0.5,0.5-0.9c1.3-1.5,2.6-2.8,4.3-3.8
				c3.2-1.1,6.5-1.3,9.9-0.7c0.9,0.2,1.2,0.5,1.1,1.4c-0.4,3.5,0.1,3.4-3.2,2.9c-1.5-0.3-3,0-4.5,0.5c-2.6,0.8-4.2,2.5-4.5,5.3
				c-0.2,2.2-0.3,4.3,1.4,6c1.9,3.1,5.1,3.9,8.4,4.3c1,0.1,2.1,0.1,3.1,0c1.2,0,1.7,0.3,1.8,1.6c0.1,3,0.1,3-2.9,3
				c-6.5,0-12.9,0-19.4,0c-2.3,0-4.4-0.2-6.6-1c-1-0.9-1.7-2-2.4-3.2c-1,1.2-1.8,2.2-2.6,3.2c-3.8,1.3-7.6,1.4-11.3-0.5
				c0-0.3-0.2-0.4-0.5-0.5c-0.3-0.8-0.7-1.5-1.5-2.2c-0.8,0.6-1.2,1.4-1.6,2.2c-0.3,0-0.4,0.2-0.5,0.5c-1.9,1.1-4,1.5-6.2,1.4
				c-3-0.1-5.6-0.9-6.9-4c-0.9,0.3-1.1,1-1.3,1.7c-0.3,0.1-0.4,0.3-0.4,0.5c-0.3,0-0.4,0.2-0.5,0.5c-1.9,1.1-4,1.4-6.2,1.4
				c-7.3,0-14.5,0-21.8,0c-1.5,0-3-0.3-4.5-0.5c-0.8-0.7-1.7-1.4-2.9-2.3c-0.2,3.2-1,5.9-2.1,8.6c-0.5,0.4-0.8,0.9-0.9,1.5
				c-1.1,1.1-2.3,2.2-3.4,3.3c-3.3,1.9-6.9,2.7-10.7,2.6C432.8,535.9,429.4,534.7,426.4,532.5z"/>
			<path class="st0" d="M90.4,555.7c0.7-1,1.2-2.1,1.5-3.3c0.5-0.4,1.1-0.4,1.8-0.4c1.1-0.1,1.7,0.3,2.1,1.4c0.8,2,1.4,4,2.6,5.8
				c1.4,4.4,3.5,8.6,5.2,12.9c1.2,3,2.4,5.9,3.6,8.8c-0.8,0.5-1.4,0.3-2,0.3c-1.2,0.2-1.7-0.4-2.1-1.4c-0.6-1.6-1.3-3.1-1.9-4.7
				c-0.3-0.8-0.8-1.1-1.6-1.1c-4,0-8,0-12,0c-0.9,0-1.5,0.4-1.8,1.3c-0.4,1.1-0.9,2.2-1.4,3.3c-1.1,2.7-1.2,2.7-4.3,2.5
				c0-1.9,1.5-3.3,1.7-5.1c2.1-4.4,4.1-8.8,5.8-13.4C88.7,560.3,89.7,558.1,90.4,555.7z"/>
			<path class="st0" d="M465,551.9c0.1,0.3,0.2,0.4,0.5,0.5c0.1,0.6,0.5,1.1,1,1.4c0.1,0.6,0.4,1.1,1,1.4c0.2,0.4,0.4,0.9,0.6,1.3
				c0.3,0.5,0.5,1.1,1,1.5c1,1.1,1.5,2.5,2.7,3.5c0.2,0.4,0.4,0.9,0.6,1.3c0.2,0.2,0.3,0.3,0.4,0.5l0,0c0.4,0.2,0.2,0.7,0.6,0.8
				c0.1,0.1,0.2,0.1,0.3,0.1c0.1,0.6,0.4,1.1,1,1.4c1.2,2.3,2.6,4.3,4.3,6.3c0.1,0.6,0.5,1.1,1,1.4c0.1,0.6,0.5,1.1,1,1.4
				c0.1,0.3,0.1,0.7,0.5,0.7c0.2,0,0.4-0.1,0.4-0.4c0-0.6,0-1.3,0-1.9c0-6.5,0-12.9,0-19.4c0-1.9,0.3-2.1,2.1-1.9
				c0.8,0.1,1.2,0.3,1.2,1.2c0,0.5,0,1,0,1.4c0,8,0,16,0,23.9c0,0.6,0,1.1,0,1.7c0,0.3-0.1,0.6-0.4,0.8c-1,0.6-3.7,0-4.5-1.1
				c-1.1-1.5-2-3.3-3.4-4.6c-0.2-0.6-0.4-1.1-1-1.4c-1.5-2.7-3.3-5.3-5.3-7.7c-1.7-3-3.8-5.8-5.8-8.7c-0.9,0.8-0.6,1.6-0.6,2.3
				c0,6.5,0,13.1,0,19.6c0,1.8-0.2,1.8-1.9,1.9c-1.5,0-1.3-1-1.3-1.9c0-6.9,0-13.7,0-20.6c0-1.4,0-2.7,0-4.1c0-2.5,0-2.5,2.7-2.5
				C464.1,552,464.6,552,465,551.9z"/>
			<path class="st0" d="M192.9,567.7c0.9,2.8,2,5.5,3.4,8.1c0.3,1.7,1.5,3.2,1.7,4.9c-0.5,0.5-1.1,0.2-1.6,0.3
				c-1.3,0.2-2.1-0.3-2.5-1.6c-0.5-1.5-1.2-3-1.8-4.4c-0.3-0.9-0.9-1.2-1.8-1.2c-4,0-8,0-11.9,0c-0.8,0-1.4,0.3-1.6,1.1
				c-0.7,1.9-1.7,3.6-2.1,5.6c-1.5,0.7-1.5,0.7-3.6,0.3c-0.2-0.5,0.1-0.9,0.3-1.4c3.7-8.6,7.5-17.3,11.2-25.9c0.4-0.9,0.7-1.7,2-1.7
				c1.2,0,1.9,0.4,2.3,1.5c1.2,3.1,2.5,6.2,3.8,9.3C191.4,564.4,191.9,566.2,192.9,567.7z"/>
			<path class="st0" d="M190.2,570.5c-4,0-7.5,0-11,0c0.2-1.7,4-11.2,5.6-13.7C186.6,561.4,188.3,565.8,190.2,570.5z"/>
			<path class="st0" d="M148.5,437.7c0.7-0.5,1.4-1.2,1.9-1.9c2.7-1.4,5.5-1.8,8.5-1.3c2.5,0.4,5.1,0.4,7.6,0.6
				c0.8,0.1,1.7,0.2,2.5,0.2c0,1.1-1.1,1.3-1.1,2.2c-1.9,2.1-3.2,4.4-2.4,7.3c0,1.9,1.2,3.2,2.3,4.6c0.4,0.5,1.1,0.8,0.8,1.6
				c-0.3,0.7-1.1,0.7-1.7,0.7c-3.8,0.2-7.6,0.7-11.5,0.7c-6.4-0.1-10.2-5.5-8.3-11.7C147.5,439.7,148,438.7,148.5,437.7z"/>
			<path class="st0" d="M209.9,333.8c-0.2-0.2-0.3-0.4-0.5-0.5c-4.2-2.4-5.8-9-1.4-13.2c4.3-2,8.8-1.9,13.4-1.2
				c2.5,0.4,3.8,1.9,4.2,4.3c0.3,1.7,0.3,3.4,0,5c-0.5,2.8-2.2,4.7-4.9,5.7C217,335.2,213.5,335.2,209.9,333.8z"/>
			<path class="st0" d="M535.7,560.9c0-0.3-0.1-0.5-0.4-0.6c-0.3-0.9-0.7-1.7-1.5-2.3c-0.1-0.6-0.4-1.1-0.9-1.5
				c-0.1-0.6-0.4-1.1-0.9-1.5c-0.1-0.6-0.4-1.1-0.9-1.5c-0.5-1.6-0.5-1.6,1.1-1.7c0.7,0,1.4,0,2.1,0c0.1,0.3,0.2,0.4,0.5,0.4
				c0.3,0.9,0.7,1.8,1.5,2.4c0.3,0.9,0.7,1.8,1.5,2.4c0.1,0.6,0.4,1.1,0.9,1.5c0.3,0.9,0.8,1.7,1.5,2.4c0.3,0.9,0.7,1.8,1.5,2.4
				c0.2,0.6,0.3,1.3,1,1.3c0.7,0,0.9-0.7,1-1.3c0.8-0.6,1.2-1.5,1.5-2.4c0.5-0.4,0.8-0.8,0.9-1.5c0.1,0,0.3,0,0.4-0.1
				c0.4-0.2,0.2-0.7,0.6-0.9l0,0c0.2-0.2,0.3-0.4,0.4-0.6c0.1-0.3,0.1-0.5,0.2-0.8c0.5-0.4,0.8-0.9,0.9-1.5c0.8-0.6,1.2-1.5,1.5-2.4
				c1.5-1.5,1.5-1.5,4.6-1.1c-0.6,1.6-1.9,2.7-2.4,4.3c-1.7,2.1-3.1,4.3-4.3,6.7c-0.8,0.8-1.5,1.8-1.9,2.9c-1.4,1.3-1.8,2.8-1.7,4.7
				c0.1,2.9,0,5.7,0,8.6c0,1.5-1.2,2.2-2.6,1.6c-0.7-0.3-0.5-0.9-0.6-1.4c0-3.1,0-6.2,0-9.3c0-1.3-0.2-2.4-1.2-3.2
				c0-0.4-0.2-0.7-0.6-0.9c-0.1-0.6-0.4-1.1-1-1.4c-0.1-0.6-0.4-1.1-0.9-1.5c-0.1-0.6-0.4-1.1-0.9-1.5
				C536.3,561.4,536.1,561.1,535.7,560.9z"/>
			<path class="st0" d="M165.9,491.5c-1.3-0.1-2.5-1.4-2.5-2.8c0.1-1.4,1.4-2.5,2.8-2.4c1.3,0.1,2.3,1.3,2.3,2.6
				C168.5,490.4,167.2,491.6,165.9,491.5z"/>
			<path class="st0" d="M254,489c0,1.5-1.1,2.7-2.5,2.6c-1.3,0-2.3-1.2-2.4-2.5c0-1.5,1-2.7,2.4-2.7C253,486.3,254,487.5,254,489z"
				/>
			<path class="st0" d="M140.3,533.5c0-0.5-0.1-1,0-1.4c0.3-1.3,1.1-2.1,2.2-2.2c1.1-0.1,2.2,0.6,2.6,1.8c0.4,1,0,2.3-1,3
				c-1,0.7-2,0.6-3-0.3C140.8,534.1,140.5,533.8,140.3,533.5C140.3,533.5,140.3,533.5,140.3,533.5z"/>
			<path class="st0" d="M400.3,486.6c0.1,0.3,0.2,0.4,0.5,0.5c0.1,0.6,0.6,1.1,0.5,1.8c0,1.4-1,2.5-2.3,2.6
				c-1.3,0.1-2.5-0.9-2.6-2.3c-0.2-1.4,0.6-2.6,2-2.8C399,486.3,399.6,486.6,400.3,486.6z"/>
			<path class="st0" d="M148.9,534.9c-0.3-0.3-0.6-0.6-0.9-1c0-0.5-0.2-1.1-0.1-1.7c0.1-1.3,1-2.3,2.2-2.4c1.2-0.1,2.3,0.8,2.6,2
				c0.3,1.4-0.4,2.6-1.6,3.1C150.3,535.2,149.6,535,148.9,534.9z"/>
			<path class="st0" d="M245.7,491.2c-1.1,0.4-2.1,0.4-3.2,0c-0.5-0.9-1.2-1.7-0.8-2.9c0.5-1.5,1.8-2.3,3.1-1.8
				c1.4,0.5,2.1,2,1.6,3.5C246.2,490.4,246,490.8,245.7,491.2z"/>
			<path class="st0" d="M443,556.2c0,0.3,0.2,0.4,0.5,0.5c0.5,1,1.2,2,1.9,2.9c1.3,3.3,1.9,6.8,1.5,10.4c-0.4,0.6-0.4,1.3-0.4,1.9
				c-0.4,0.4-0.5,0.9-0.5,1.4c-0.3,0.3-0.4,0.6-0.4,1c-1.3,1.9-2.7,3.7-4.4,5.2c-0.6,0.1-1.1,0.5-1.5,1c-0.4,0-0.7,0.1-1,0.5
				c-3.4,1.3-6.9,1.4-10.4,1c-0.1,0-0.1-0.1-0.2-0.2c-8-2.3-11.8-9.8-10.6-17.2c0.1-0.7,0.2-1.4,0.2-2.1c0.4-0.4,0.4-0.9,0.5-1.4
				c0.5-0.6,0.8-1.2,0.9-2c0.4-0.2,0.5-0.5,0.6-0.9c0.6-0.5,1.1-1.2,1.5-1.9c0.3,0,0.4-0.2,0.5-0.5c0.8-0.3,1.3-0.9,1.9-1.5
				c0.6-0.1,1.1-0.4,1.5-0.9c1.8-0.5,3.6-1.3,5.5-1.5c3.5-0.3,6.6,0.5,9.7,2c0.3,0.5,0.8,0.8,1.4,1l0,0c0.3,0,0.5,0.2,0.5,0.5l0,0
				c0.3,0,0.4,0.2,0.5,0.5h0C442.6,556,442.8,556.2,443,556.2z"/>
			<path class="st0" d="M443.5,566.8c-0.1,7.4-5,12.5-11.8,12.3c-5.9-0.1-10.6-4.8-11-11.2c-0.3-4.3,1-8.1,4.5-10.8
				c5.7-4.6,14.4-2.3,17.2,4.5C443.2,563.5,443.5,565.3,443.5,566.8z"/>
			<path class="st0" d="M99,570.4c-4,0-7.5,0-11,0c0.2-1.7,4-11.2,5.6-13.7C95.4,561.3,97.1,565.7,99,570.4z"/>
			<path class="st0" d="M96.7,512.5c0-1.6-0.1-3.6,0.5-5.5c1-3.6,3.6-5.4,7.3-5.2c3.4,0.2,5.7,2.5,6.1,6.2c0.2,1.8,0.2,3.7-0.1,5.5
				c-0.4,2.6-1.7,3.9-4.4,4.3c-2.7,0.4-5.4,0.2-8.1,0.3c-1.1,0-1.4-0.5-1.4-1.5C96.7,515.3,96.7,514.1,96.7,512.5z"/>
		</g>
		<g>
			<path class="st1" d="M625.9,404.6c-0.2,1.5-0.2,3,0,4.5c-0.5,1.2,0.4,3.1-1.4,3.4c-1.7,0.3-1.3-1.8-2.1-2.6
				c-1.2-1.2-2.2-2.6-3.1-4.1l0,0c-3.2-4.1-7.3-7.3-10.8-11c-6.4-6.7-12.4-13.8-17.6-21.5c-2.8-4.1-5.6-8.3-8.1-12.6l0,0
				c-1.5-2-2.7-4.1-3.9-6.3l0,0c-0.8-0.6-1-1.6-1.5-2.4l0,0c-0.7-0.7-0.9-1.6-1.5-2.4l0,0c-0.7-0.7-0.9-1.7-1.5-2.4l0,0
				c-0.8-1.3-1.7-2.5-2.4-3.9l0,0c-0.9-1.3-1.7-2.5-2.4-3.9l0,0c-0.7-1-1.3-2-1.9-3l0,0c-1.4-1.9-2.6-3.8-3.9-5.8l0,0
				c-0.5-0.4-0.8-0.9-1-1.5l0,0c-1.4-1.7-2.7-3.5-3.9-5.3l0,0c-0.6-0.6-1.2-1.2-1.5-2l0,0c-0.6-0.8-1.6-1.4-1.9-2.5l0,0
				c-0.7-0.8-1.6-1.4-2-2.4l0,0c-0.7-0.8-1.5-1.4-2-2.4l0,0c-0.3-0.1-0.4-0.3-0.5-0.6l0.1,0c-0.8-1-1.9-1.7-2.5-2.9l0,0
				c-0.3-0.1-0.4-0.3-0.5-0.5l0.1,0c-0.2-0.1-0.3-0.2-0.4-0.4c-0.4-0.9-1.1-1.5-1.9-2c-0.7-0.5-1.3-1.1-1.6-1.9l0,0
				c-0.3-0.1-0.4-0.3-0.5-0.5l0,0c-0.3-0.1-0.5-0.3-0.5-0.5l0.1,0c-3.7-3.7-7.3-7.5-11.1-11.1l0,0.1c-0.3-0.1-0.5-0.3-0.5-0.5l0,0
				c-0.3-0.1-0.4-0.3-0.5-0.5l0,0c-1.7-1-2.8-2.6-4.3-3.9l0,0.1c-0.3-0.1-0.5-0.3-0.5-0.5l0,0c-1.4-0.7-2.2-2-3.4-2.9l0,0
				c-1.2-0.5-2-1.6-2.9-2.4l0,0.1c-0.3-0.1-0.4-0.3-0.6-0.5l0,0c-1-0.5-1.6-1.3-2.4-2l0,0c-1-0.4-1.6-1.3-2.4-2l0,0
				c-0.8-0.3-1.4-0.9-2-1.5l0,0c-0.6-0.1-1-0.6-1.4-1.1c-0.3-0.5-0.8-0.9-1.4-1c-0.6-0.3-1.2-0.8-1.7-1.3l0,0
				c-1.2-0.8-2.4-1.4-3.4-2.5l0,0c-1.2-0.7-2.4-1.5-3.4-2.4l0,0c-0.5-0.3-1.1-0.5-1.5-1l0,0c-0.5-0.3-1.1-0.5-1.5-1l0,0
				c-4-2.5-8-4.8-12-7.3l0,0c-6.1-3.3-12.4-6-18.8-8.6l0,0c-6.2-2.1-12.4-3.8-18.8-5.3l0,0c-0.8-0.4-0.8-0.9-0.2-1.4
				c0.6-0.6,1.1-1.3,1.7-1.9l0,0c1.9-2.6,4-5,6.3-7.2l0,0c2.7-3.5,5.7-6.9,9-9.8c1.5-1.3,3.4-1.4,5.4-0.7c4.5,1.7,9,3.5,13.3,5.7
				l0,0c4.6,2,9.2,4.2,13.5,6.8l0,0c1.4,0.9,3.1,1.3,4.4,2.4l0,0c2,1,4,2.1,5.8,3.4l0,0c1.4,0.7,2.7,1.5,3.9,2.4l0,0
				c0.6,0.2,1.1,0.5,1.5,1l0,0c1,0.5,1.9,1.2,2.9,1.7c0.5,0.4,0.9,0.8,1.5,1c0.5,0.4,0.9,0.8,1.5,1c0.5,0.4,1,0.7,1.6,1
				c4.5,3.2,8.8,6.6,13.2,9.9c1.9,1.7,4,3.3,5.9,5.1c0.2,0.1,0.4,0.2,0.6,0.3c0.2,0.1,0.3,0.3,0.5,0.5c0.1,0.1,0.2,0.2,0.2,0.3
				c6.9,6.2,13.3,12.8,19.9,19.4c0.2,0.2,0.3,0.3,0.5,0.5c0.2,0.1,0.3,0.3,0.5,0.5c0.1,0.2,0.2,0.4,0.3,0.5c1,1.7,3,2.6,3.8,4.5l0,0
				c1,1.1,2.2,2.2,3.2,3.4c4.5,5.6,9,11.1,13.2,16.9c2.4,3.3,4.7,6.6,6.9,10c2,3,3.8,6,5.7,9.1c0.9,1.6,1.8,3.3,2.9,4.8
				c0.6,1.1,1.2,2.3,1.8,3.5l0,0c0.3,0.3,0.5,0.7,0.7,1c0.5,1.1,1.1,2.2,1.7,3.4l0,0c0.4,0.2,0.3,0.7,0.5,1l0,0
				c3.4,6.2,6.5,12.6,9.5,19c2.4,5.2,4.5,10.5,6.6,15.8C622.2,389.2,623.8,397,625.9,404.6z"/>
			<path class="st1" d="M511.1,327.3c0.1,0.3,0.2,0.4,0.5,0.5c3.5,3.8,7.3,7.4,11,11c0.1,0.3,0.2,0.4,0.5,0.5
				c0.1,0.3,0.2,0.4,0.5,0.5c0.1,0.3,0.2,0.4,0.5,0.5c1.7,2.3,3.7,4.3,5.8,6.2c2.3,2.9,4.6,5.6,7.2,8.2c0.6,1.1,1.4,2,2.4,2.9
				c1.1,1.8,2.4,3.3,3.9,4.8c0.9,1.6,2,3.1,3.3,4.3c0.8,1.4,1.7,2.7,2.9,3.9c0.6,1.6,1.8,2.8,2.8,4.1c3.1,4.5,5.9,9.3,8.1,14.3
				c0.2,0.4,0.5,0.8,0.7,1.2c1.2,4.1,2.8,8.1,3.8,12.3c0.3,1.5,0.7,2.9,1.1,4.7c-3.6-0.1-6.9-1.4-10.4-1.3c-1.8-0.6-3.8-0.6-5.7-0.7
				c-5.7-0.3-11.3-0.3-17,0.2c-9.4,0.8-18.6,2.7-27.7,5.5c-0.3,0.1-0.6,0.2-0.9,0.3c-3.4,1.1-3.4,1.1-3.4-2.6c0-1.6,0.2-3.2,0.2-4.8
				c0-0.5,0-0.9-0.4-1.6c-1,1.4-1.4,2.9-2,4.3c-0.4,0.5-0.9,1-1.3,1.6c-0.5,0.4-0.6,1-1,1.4c-0.8,0.9-1.7,1.9-2.5,2.8
				c-0.3,0-0.4,0.2-0.5,0.4c-6.7,4.9-14.6,7.1-22.3,9.7c-0.7,0.3-1.6,0.3-2.2,0.9c-2.5,0.4-4.9,1.4-7.3,2.2
				c-5.8,1.8-11.7,3.7-17.6,5.3c-0.7,0.2-1.4,0.2-2,0.8c-2.9,0.6-5.8,1.3-8.6,2.4c-4.5,1.1-9,2.1-13.5,3.3c-1.9,0.5-3.9,0.7-5.8,1.5
				c-5.2,1.1-10.5,2.1-15.7,3.2c-10.8,2.2-21.8,3.4-32.8,3.8c-18.9,0.7-37.5-1.5-55.8-6.3c-2.6-0.7-5.2-1.4-7.8-2.2
				c-0.4-0.4-0.9-0.5-1.4-0.5c-0.4-0.4-0.9-0.5-1.4-0.5c-1.7-0.9-3.4-1.5-5.3-1.9c-0.7-0.6-1.5-0.8-2.4-1c-1-0.7-2.1-1.2-3.4-1.4
				c-0.2-0.3-0.6-0.4-1-0.5c-3.5-1.8-6.9-3.6-10.3-5.5c-12.8-7.2-24-16.4-33.4-27.7c-2-2.5-4.1-4.9-6.3-7.3c-1-1.2-1.1-1.1-2,0.6
				c-0.8,0.8-1.5,1.8-1.9,2.9c-1.3,1.3-2.6,2.5-3.8,3.8c-3.3,2-6.7,3.7-10.5,4.3c-2.9,0.5-5.9,0.6-8.8,0.6c-1.5,0-3,0.2-4.2,1.3
				c-1.2,0.5-2,1.3-2.4,2.5c-0.5,0.3-0.9,0.8-1,1.5c-0.8,0.8-1.5,1.7-2,2.8c-3,3.4-6.3,6.5-10,9.1c-1.2,0.5-2.4,1-3.4,1.9
				c-2.5,0.7-4.9,1.9-7.5,2.5c-12.5,2.7-23.7-0.2-33.8-8c-0.6-0.4-1-1.1-1.7-1.2c-1.4-1.7-3-3.1-4-5.1c-0.1-0.2-0.3-0.4-0.4-0.6l0,0
				c-0.8-1.4-1.6-1.5-2.4,0c-2.7,3.8-6,7-9.6,10c-0.5,0.5-1.2,0.8-1.6,1.4c-0.8,0.3-1.4,0.7-1.9,1.4c-0.6,0.1-1.1,0.4-1.4,0.9
				c-0.9,0.3-1.7,0.7-2.4,1.5c-1.4,0.5-2.6,1.1-3.8,1.9c-3.1,1-6.1,2.3-9.3,3c-11.7,2.5-23.3,2.5-34.5-2.4c-0.2-0.1-0.5-0.1-0.7-0.1
				c-0.5-0.5-1.2-0.8-1.9-1c-2.7-1.9-5.4-3.9-8.1-5.8c-1.8-1.9-3.6-3.8-5.3-5.7c-0.4-1-1-0.9-1.6-0.2c-1.9,2.3-4,4.6-5.3,7.3
				c-0.8,0.6-1.2,1.5-1.4,2.4c-2.7,4-4.2,8.5-5.1,13.3c-2,9.9-0.3,19.5,3.2,28.8c0.4,1.1,0.7,2.3,1.5,3.2c0.9,3,2.5,5.6,3.9,8.4
				c0.6,1.2,1.3,2.4,1.9,3.6c0.3,0.2,0.2,0.7,0.5,0.9l0,0c0.3,0.5,0.6,1,0.9,1.5l0,0c0,0.8-0.4,0.8-0.9,0.5h0
				c-0.2-0.1-0.3-0.3-0.5-0.4l0,0c-0.1-0.4-0.7-0.2-0.8-0.6c-11.5-8.6-20.3-19.2-24.7-33.1c-1.8-5.5-2.9-11.1-2.4-17
				c0.6-6.7,2.9-12.9,6.3-18.7c2.6-4.5,5.8-8.6,8.9-12.8c2-2.7,3.9-5.5,5.6-8.4c1.4-2.4,2.4-4.8,2.6-7.6c0.4-5.9,2-11.6,4.3-17.1
				c0.2-0.4,0.3-0.9,0.4-1.4c1.7-3,3.2-6.1,5-9c3.9-6.3,8.7-11.8,14.1-16.8c0.5-0.5,1.2-0.9,1.5-1.5c2.8-1.8,5.2-3.9,8-5.7
				c7.2-4.6,15-7.7,23.5-9.1c2-0.3,4.1-0.4,6.2-0.4c3.2,0,6.4,0.1,9.6,0.2c2.1,0.1,3.4,1.1,3.9,3.2c0.5,1.8,0.5,3.6,0,5.5
				c-1.4,5.3-4.2,9.2-9.7,10.8c-6.7,2-13.3,4.2-19.4,7.6c-1.6,0.9-3.2,1.7-4.6,3c-0.8,0.2-1.4,0.7-1.9,1.4c-1,0.4-1.8,1.1-2.4,2
				c-0.3,0-0.4,0.2-0.5,0.5c-1.6,1-2.8,2.3-3.9,3.9c-1.4,1.3-2.6,2.6-3.3,4.4c-1.6,1.8-2.7,3.9-3.4,6.2c-0.6,0.7-0.9,1.5-1,2.4
				c-0.4,0.4-0.4,0.9-0.5,1.5c-4.3,11.5-0.2,23.9,8.8,31c0.2,0.2,0.6,0.3,0.8,0.4c2.8,2.5,6.2,3.8,9.8,4.5c6.5,1.3,12.8,0.4,19-1.8
				c0.2-0.1,0.4-0.3,0.6-0.4c5.6-1.8,10.1-5.3,13.9-9.8c5.5-6.4,8.4-14,9.9-22.3c1.6-8.9,2.3-17.9,1.5-26.9
				c-0.2-2.5-0.6-5.1-1.2-7.5c-0.5-2.3-0.1-4.4,0.2-6.6c0.1-1,0.9-0.3,1.3-0.4c1.2,0.3,2,1.2,3.1,1.8c1,0.8,2,1.7,2.3,3.1
				c1.1,2.4,2.3,4.7,3.3,7.1c4.9,12,4.6,24,0.3,36c-1.5,4.1-3,8.3-4.5,12.4c-0.4,1.1-0.2,1.7,0.8,2.4c10.5,6.7,24.5,5.7,34-2.2
				c0.2-0.2,0.3-0.4,0.5-0.5c1-0.4,1.7-1.2,2.3-2c8.7-10,10.9-21.5,7.6-34.2c-0.9-3.5-2.9-6.5-5.3-9.2c-3.9-4.2-8.4-7.5-13.3-10.4
				c-0.9-0.5-1.9-1-1-2.3l0,0c0.3-0.5,0.5-1.1,1-1.5l0,0c0.6-1.2,1.6-1.9,2.5-2.9l-0.1,0c0.1-0.3,0.3-0.4,0.5-0.5l0,0
				c0.6-0.1,0.9-0.6,1.4-0.9c2.4-1.9,5.1-2.9,8.1-3.1c5.7-0.3,11.1,0.7,15.8,4.3c1.6,1.3,2.9,3,4.3,4.4c2,3.5,4,7.1,5.4,10.9
				c1.9,5.1,3,10.4,3.7,15.8c0.2,1.6,0.4,3.2,0.7,4.7c0.3,1.6,0.5,1.6,1.9,1.1c4-1.3,6.5-4.7,6.7-9.3c0.1-3.9,0.2-7.8,0.3-11.7
				c0-1.4,0.5-2.6,1.3-3.8c1.1-1.4,1.1-1.4,2.9-0.6c1.5,1.4,2.4,3.1,3.1,5c4,11.2,9.1,21.8,16,31.6c11.6,16.6,27,28.2,46.1,34.7
				c0.2,0.1,0.5,0.1,0.7,0.2c2.5,0.8,2.8,0.6,3.2-1.8c1.2-6.8,2.7-13.6,3.3-20.6c0.3-3.3,0.5-6.7,0.5-10.1c0-12.2-1.9-24.2-5.4-35.9
				c-1.5-4.9-3.3-9.7-5.2-14.4c-0.6-1.4-1-2.9-1.4-4.3c-0.3-1.1-0.7-2.4,0.4-3.3c0.8-0.7,2-0.2,3.4,1.1c4.1,3.8,7.4,8.1,10.2,12.9
				c0.3,0.2,0.2,0.7,0.5,0.9l0,0c0.1,0.2,0.3,0.3,0.4,0.6c5.8,9.9,9.5,20.5,11.5,31.8c1.3,7.2,1.4,14.5,1.1,21.7
				c-0.1,2.7-0.1,5.4-0.4,8.1c-0.5,5.7-3,10.4-6.7,14.5c-0.4,0.5-0.8,1-1.3,1.4c0,0,0,0.2,0,0.4c2.9,1,5.9,1.6,8.9,2.1
				c8.4,1.5,16.9,1.5,25.3,1.3c2.6,0,5.3-0.2,7.9-0.1c1.4,0,2-0.5,2.4-1.8c2.2-6.7,4-13.5,5-20.4c0.8-5.6,1.4-11.3,1.3-16.9
				c-0.1-8.8-1-17.5-2.6-26.2c-2.2-12.3-6-24.2-11.3-35.5c-1.1-2.3-1.5-4.7-1.8-7.2c-0.2-1,0.3-1.3,1.2-1.3c1.3,0,2.5,0.3,3.6,1
				c0.2,0.3,0.7,0.2,0.9,0.5l0,0c0.2,0.1,0.4,0.2,0.5,0.4c2.5,2.1,4.1,4.9,5.9,7.5c8.8,13.2,14,27.7,17.1,43.2
				c2,10,2.7,20.1,1.9,30.3c-0.5,6.6-1.7,13.1-3.8,19.5c-0.4,1.2-0.7,2.5-1,3.7c-0.2,0.7,0.1,1.1,0.9,1c0.5,0,1,0,1.4-0.1
				c7-0.9,14.1-1.8,21.1-2.7c4.5-0.6,9-1.1,13.5-1.6c0.8-0.1,1.6-0.3,2.4-0.4c0.8-0.1,1-0.5,1.2-1.2c2-11.1,4.3-22.1,3.5-33.5
				c-0.9-11.7-3.8-22.8-9.3-33.2c-0.6-1.1-0.7-2.3-0.7-3.5c0-0.9,0.4-1.1,1.2-1c1.2,0.1,2.1,0.5,3,1.2c3.6,3.1,7,6.4,9.7,10.2
				c0.2,0.1,0.3,0.3,0.4,0.5l0,0c0.4,0.2,0.3,0.7,0.6,0.9c5,6.8,7.9,14.4,9.4,22.6c1.7,9.1,1.3,18.3,0.6,27.5
				c-0.1,1.3-0.2,2.7-0.3,4.1c0,0.1,0.1,0.3,0.3,0.6c2.6-0.8,5.3-1.5,8-2.3c8.4-2.4,16.8-4.7,25.1-7c3.2-0.9,6.5-0.9,9.7-0.1
				c2.4,0.6,4.8,0.9,7.3,0.5c3.4-0.7,6-2.5,7.3-5.6c2.9-6.5,4-13.1,0.6-19.9c-0.3-0.8-0.9-1.4-1.5-2c-2.2-2.1-4.7-3.8-7.4-5.2
				c-1.4-0.7-2.8-1.6-4.2-2.3c-0.9-0.5-1-1-0.7-1.9c1-2.7,2.9-4.5,5.5-5.3c3.6-1.1,7.3-1.1,10.9,0.1c3.3,1.1,5.6,3.3,7.1,6.4
				c2,4.2,3.3,8.7,4.7,13c0.5,1.4,1,2.7,1.3,4.1c0.3,1.4,1,1.5,2.2,1.2c4.6-1.3,9.2-2.5,13.8-3.8c2-0.5,4-1.1,6-1.6
				c0.7-0.2,1.4-0.3,2-0.9c-1.1-4.1-3.2-7.6-6.1-10.7c-0.5-0.6-1-1.3-1.6-1.8c-5.9-6.4-11.8-12.8-18-18.9
				c-20.1-19.5-42.5-35.9-67.8-48c-15.4-7.4-31.6-12.1-48.5-14.6c-13.8-2-27.7-2.4-41.6-1.8c-23.1,1-45.7,5.1-67.9,11.7
				c-13.7,4.1-27.1,9-40.2,14.7c-0.9,0.4-1.8,0.6-2.7,1c-1.8,0.6-3.6,0.6-5.4-0.2c-1.2-1.8-1.6-3.8-1.4-5.9
				c1.4-11.1,2.7-22.3,5.4-33.3c2.2-8.9,4.9-17.6,7.8-26.3c0.2-0.7,0.5-1.3,0.6-2.1c0.5-0.4,0.4-0.9,0.5-1.4
				c0.4-0.4,0.4-0.9,0.5-1.4c0.7-1.2,1.2-2.5,1.4-3.9c1-2,1.9-4,2.4-6.2c0.6-0.7,0.9-1.5,1-2.4c1.7-3,2.8-6.3,4.1-9.4
				c3.2-7.1,6.6-14.2,10.2-21.1c0.4-0.7,0.9-1.3,1-2.2l0,0c0.9-1.4,1.4-3,2.4-4.4l0,0c0.7-1.1,1.1-2.4,1.9-3.4l0,0
				c0.2-0.3,0.1-0.8,0.5-1l0,0c0.5-0.8,0.8-1.8,1.4-2.5l0,0c0.8-1.1,1-2.4,2-3.4v0c0.8-0.6,1.2-1.5,1.5-2.4c1-1.2,1.8-2.4,2.4-3.9
				c2.9-4.4,5.9-8.7,8.8-13.1c1.4-2,3-3.9,4.2-6.1c2.2-2.6,4.3-5.3,6.2-8.2c0.7-0.5,1.2-1.1,1.5-1.9c0.8-0.6,1.5-1.4,1.9-2.4
				c1.8-1.8,3.3-3.7,4.8-5.8c1.1-1,2.2-2,2.9-3.4c1.3-1.1,2.5-2.4,3.4-3.8c2-1.9,4-4,5.7-6.2l0,0c0-0.3,0.2-0.5,0.5-0.5l0,0
				c0-0.3,0.2-0.4,0.5-0.5l0,0c3.8-3.6,7.5-7.3,11-11l0,0c0.1-0.3,0.2-0.4,0.5-0.5l0,0c0-0.3,0.2-0.4,0.5-0.5l0,0
				c2.3-1.7,4.3-3.7,6.2-5.8c1.5-0.9,2.7-2.1,3.8-3.4c1.5-0.9,2.7-2.1,3.9-3.3c1.1-0.6,2.1-1.4,2.9-2.4c2.6-1.7,4.9-3.8,7.4-5.7
				c5-3.9,10-7.7,15.2-11.3c0.5-0.4,1.1-0.6,1.5-1.2c2.5-1.4,4.9-3,7.2-4.8c0.6-0.1,1.1-0.4,1.5-0.9c1.4-0.6,2.7-1.4,3.8-2.4
				c0.9-0.3,1.8-0.7,2.4-1.5c0.9-0.3,1.8-0.6,2.4-1.4c0.9-0.3,1.8-0.7,2.4-1.4c1.2-0.5,2.4-1,3.4-1.9c7.7-3.5,15.3-7.1,23-10.6
				c0.2-0.1,0.4-0.3,0.5-0.4c4.1-1.6,8-3.4,12-5.3c2.7-0.7,5.2-1.8,7.7-2.9c2.5-0.6,4.8-1.4,7.2-2.4c3.8-1,7.5-2.1,11.2-3
				c4.1-1,8.2-1.9,12.2-2.8c2.6-0.4,5.2-0.7,7.8-1.1c6.2-0.9,12.3-0.6,18.5,0.1c3.2,1,6.4,1.9,9.6,2.9c1.5,0.9,3.1,1.8,4.8,2.4
				c1.3,1.2,2.8,2,4.3,2.9c1.3,1.3,2.6,2.5,3.8,3.8c0.3,0.8,0.8,1.4,1.5,1.9c0.8,1.4,1.6,2.9,2.4,4.3c1.7,4.6,3,9.3,3.2,14.2
				c0.1,3.8,0.1,7.7,0.1,11.5c0,1.8-0.3,3.7-0.1,5.5c0.5,7.7-0.8,15.3-2.5,22.8c-1.4,6.1-2.8,12.1-4.1,18.2
				c-0.2,0.7-0.2,1.4-0.3,2.1c-0.7,1.9-1.2,3.8-1.4,5.8c-0.5,0.6-0.4,1.3-0.5,1.9c-0.5,0.6-0.4,1.3-0.5,1.9
				c-0.8,1.7-1.2,3.5-1.4,5.3c-1.3,3-2,6.2-3,9.3c-3,8.9-6.3,17.7-10.3,26.1c-0.3,0.6-0.7,1.3-0.7,2c-0.7,0.9-1.2,1.8-1.4,2.9
				c-0.3,0.2-0.5,0.6-0.5,1c-0.3,0.2-0.5,0.6-0.5,1c-0.3,0.2-0.5,0.6-0.5,1c-2,2.9-3.4,6.1-5.2,9.1c-3.5,5.9-7.2,11.7-11.3,17.2
				c-0.5,0.6-0.8,1.3-1.3,2c-1.9,2.1-3.7,4.4-5.3,6.7c-1,0.8-1.8,1.7-2.4,2.9c-1.3,1.1-2.4,2.4-3.4,3.8c-0.3,0.1-0.4,0.3-0.4,0.5
				c-3,3.1-6.1,6.1-9.1,9.2c-1,0.8-1.8,1.7-2.7,2.5c-0.7,0.7-1.4,1.5-2.1,2.2c-1.5,0.9-2.7,2.1-3.9,3.3c-1,0.4-1.7,1.1-2.4,1.9
				c-2.7,1.8-5.2,3.7-7.7,5.8c-3.3,2.1-6.7,4.2-10,6.3c-0.2,0.4-0.7,0.2-0.9,0.6l0,0c-0.3,0.2-0.7,0.3-1-0.1l0,0
				c-0.3-0.6,0.1-1,0.5-1.3l0,0c0.1-0.2,0.2-0.4,0.4-0.5c0.9-1.3,2.3-2.3,3-3.8l0,0c0.5-1.2,1.6-2,2.5-2.9l-0.1,0
				c0.1-0.3,0.3-0.5,0.5-0.6l0,0c0.6-1.2,1.6-1.9,2.5-2.9l0,0c0.6-1.4,2-2.3,3-3.4c3.6-3.6,6.7-7.5,9.8-11.5
				c14.5-18.5,25.4-39.1,33.7-61.1c6.3-16.6,10.8-33.7,14.6-51c1.3-6.1,2.4-12.2,3.2-18.4c1.3-11.4,1.1-22.6-1.8-33.8
				c-0.9-3.3-3-5.4-6.4-6.1c-1.3-0.3-2.5-0.4-3.8-0.5c-15.3-0.8-29.9,2.1-44,7.7c-25.4,9.9-49.6,22.1-71.8,38.1
				c-5.4,3.9-10.6,7.9-15.7,12.3c-0.5,0.4-1,0.8-1.3,1.4c-1.7,1-3.1,2.4-4.4,3.9c-2,1.3-3.6,3.1-5.3,4.8c-3.9,3.7-7.6,7.5-11.3,11.4
				c-0.4,0.5-1,0.9-1.2,1.5l0,0c-0.1,0.3-0.3,0.4-0.5,0.5l0,0c-1.5,1.3-2.8,2.7-3.8,4.3l0,0c-0.7,1.4-2,2.2-2.9,3.4l0,0
				c-0.5,1.2-1.6,1.9-2.4,2.9l0,0c-1.2,1.7-2.4,3.4-3.9,4.8l0,0c-0.4,1-1.3,1.6-1.9,2.5l0,0c-2.3,3.3-4.7,6.5-7.2,9.6l0,0
				c-1.5,2.4-3.1,4.6-4.8,6.8l0,0c-1.4,2.1-2.7,4.3-4.3,6.3l0,0c-1,1.8-2.2,3.6-3.4,5.3l0,0c-0.7,1.4-1.5,2.6-2.4,3.9l0,0
				c-0.5,0.8-0.8,1.7-1.5,2.4l0,0c-0.7,1.1-1,2.4-2,3.4l0,0c-0.7,1.1-1,2.4-2,3.4v0c-1.8,2.2-2.9,4.8-4.1,7.2
				c-6.8,13-12.6,26.3-17.5,40.1c-0.2,0.5-0.3,1.1-0.4,1.6c-2.1,4.7-3.4,9.8-4.7,14.8c-0.3,1-0.5,2-0.7,3c-0.1,0.3-0.2,0.6-0.2,0.9
				c-0.1,1.9,0.7,2.6,2.5,2.1c4.9-1.4,9.8-2.8,14.7-4.2c10.8-3,21.7-5.2,32.7-7c7.5-1.2,15-2.1,22.6-2.7c8.6-0.6,17.2-0.9,25.9-0.4
				c6.9,0.4,13.7,0.9,20.5,1.7c10.3,1.3,20.5,3.3,30.5,6c17.1,4.5,33.3,11.1,48.9,19.4c0.7,0.4,1.3,0.9,2.2,1
				c1.3,1.1,2.8,1.8,4.3,2.5c3.9,2.5,7.8,4.9,11.7,7.4c7,4.6,13.7,9.6,20.2,14.8c0.4,0.3,0.8,0.5,1.2,0.8c0.8,1,1.7,1.8,2.9,2.4
				c1,1.1,2,2.2,3.3,2.9c1.3,1.4,2.7,2.8,4.3,3.8C506.5,323.3,508.7,325.4,511.1,327.3z"/>
			<path class="st1" d="M311.7,238c0.3-0.1,0.4-0.2,0.5-0.5c3.7-3.7,7.4-7.4,11-11h0c0.1-0.2,0.3-0.4,0.5-0.5l0,0
				c1.2-0.9,2-2.2,3.4-2.9l0,0c0.1-0.2,0.3-0.4,0.5-0.5l0,0c0.8-0.7,1.4-1.5,2.4-2l0,0c0.6-0.6,1.2-1.1,1.9-1.5l0,0
				c0.6-0.5,1.2-1.1,2-1.5l0,0c1.8-1.5,3.7-2.8,5.8-3.9l0,0c4.9-2.9,10.4-3.3,15.9-3.5c10.9-0.4,21.7-0.4,32.6-0.3
				c14.3,0.1,28.5,1.2,42.5,4.4c4.3,1,8.7,2.1,13,3.2c1.5,0.9,1.5,0.9,0.8,2.2c-3,5.5-6.8,10.4-11.1,14.9c-1.7,1.8-3.4,3.5-5.2,5.3
				c-1.4,0.8-2.9,1-4.6,0.8c-3.8-0.6-7.5-1.3-11.3-1.7c-7-0.8-14-1.2-21-1.3c-11.1-0.1-22.2,0.4-33.3,0.8
				c-7.1,0.2-14.2,0.8-21.3,1.6c-6.5,0.8-13,1.7-19.5,2.6c-2.9,0.4-5.9,0.8-8.8,1.2c-0.4,0.1-0.9,0.2-1.4-0.2
				c-0.1-0.7,0.8-1,0.8-1.6c0.3-0.1,0.4-0.2,0.5-0.5c1.1-1,2.1-2,2.9-3.3C311.5,238.4,311.6,238.3,311.7,238z"/>
			<path class="st1" d="M228.4,521c-0.3,0.1-0.4,0.2-0.5,0.5c-3.1,1.9-6.4,1.6-9.7,1c-2-0.4-3.1-1.9-4-3.8c-1.5,1.6-2.6,3.5-4.8,3.9
				c-2.1,0.4-4.1,0.4-6.2,0c-2.3-0.4-3.5-2-4.4-3.8c-0.6,0.2-0.8,0.6-1,0.9c-1.1,1.8-2.7,2.8-4.9,3c-2.1,0.2-4.1,0.1-6.2,0.2
				c-3.5,0-7,0-10.5,0c-2.4,0-4.6-0.3-6.7-1.4c-0.1-0.3-0.2-0.4-0.5-0.5c0-0.3-0.2-0.4-0.4-0.5c-0.2-0.6-0.4-1.2-1-1.7
				c-0.9,1.1-1.7,2.1-2.6,3.1c-4.1,1.4-8.3,1.1-12.4,0.6c-2.2-0.3-3.6-1.8-4.5-3.8c-0.8,0.4-1.1,1.1-1.3,1.8
				c-0.6,0.4-1.1,0.8-1.5,1.4c-0.4,0-0.7,0.1-1,0.5c-3.4,0.7-6.8,0.4-10.3,0.4c-4.1,0-8.1,0-12.2,0c-3,0-5.7-0.8-7.6-3.3
				c-0.7-1.5-0.8-1.6-1.6-0.6c-2,2.5-4.6,3.5-7.7,3.7c-4.8,0.4-9.6,0.1-14.4,0.2c-5,0.1-6.1,0.9-6.4,5.9c-0.2,4.4-0.1,8.8-0.1,13.2
				c0,0.7,0.3,1.6-0.6,1.8c-1.1,0.3-2.2,0.4-3.3-0.1c-0.4-0.2-0.4-0.7-0.4-1.1c0-5.4,0-10.7,0.1-16.1c0-1.3,0.5-2.7,0.8-4
				c2.1-3.4,5.2-4.7,9.1-4.5c2.3,0.1,2.3,0,2.3-2.2c0-1.9,0-3.8,0-5.8c0-4.5,2-8.1,5.4-11c3-1.5,6.1-2.2,9.4-1.2
				c1,0.3,1.9,0.8,2.9,1.2c1,1,1.9,1.9,2.9,2.8c1.6,3,2.3,6.1,2.2,9.5c0,1.3,0.1,2.6,0.7,3.7c1.1,2,2.9,3,5.1,3
				c6.7,0.1,13.4,0.1,20.1,0c2.1,0,3-1,3.1-3.2c0.2-2.5,0.1-5,0.1-7.4c0-1.8,0-3.7,0-5.5c0-1.2,0.4-1.8,1.6-1.7c0.4,0,0.8,0,1.2,0
				c1.2-0.1,1.5,0.5,1.5,1.6c0,2.6,0,5.1,0,7.7c0,1.2,0.1,2.4,0.2,3.6c0.4,2.8,2.2,4.7,5,4.9c2.3,0.2,4.6,0.1,7,0
				c1.7-0.1,2.3-0.7,2.8-2.4c0.3-0.9,0.3-1.7,0.3-2.6c0-3.5,0-7,0-10.5c0-2.2,0-2.2,2.3-2.2c0.2,0,0.3,0,0.5,0
				c1.1-0.1,1.6,0.3,1.5,1.5c0,2.9,0,5.8,0,8.6c0,1,0,1.9,0.3,2.8c0.7,3.1,2.5,4.7,5.7,4.8c2.9,0.1,5.8,0,8.6,0c2.8,0,5.6,0,8.4,0
				c2.5,0,3.2-0.8,3.6-3.2c0.3-2.2,0.1-4.5,0.2-6.7c0-0.7-0.3-1.6,0.6-1.8c1.1-0.2,2.2-0.4,3.3,0.1c0.5,0.2,0.4,0.8,0.4,1.3
				c0,1.6,0,3.2,0.1,4.8c0.1,1.2,0.3,2.4,1.3,3.2c1.7,2.2,5.6,3.1,8,2c0.6-0.3,1-0.7,1.3-1.4c0.3-1,0.5-2,0.5-3c0-2.6,0-5.3,0-7.9
				c0-1.7,0-1.7,1.7-1.8c0.4,0,0.8,0,1.2,0c1.1-0.1,1.4,0.5,1.4,1.4c0,2.2,0,4.3,0.1,6.4c0.1,1.5,0.1,3,1.3,4.2
				c0,0.3,0.2,0.5,0.4,0.5c0.1,0.3,0.2,0.4,0.5,0.5c2.2,1.8,4.7,1.5,7.3,1.1c0.9-0.2,1.3-0.8,1.5-1.7c0.3-1.1,0.4-2.2,0.4-3.3
				c0-3.6,0-7.2,0-10.8c0-1.7,0.1-1.7,1.8-1.7c0.3,0,0.6,0,1,0c1.2-0.1,1.5,0.4,1.5,1.5c0,2.6,0,5.3,0,7.9c0,1,0,1.9,0.1,2.9
				c0.3,3.3,2.1,5.2,5.3,5.4c2.2,0.2,4.5,0.1,6.7,0c1.8-0.1,2.4-0.7,2.9-2.3c0.3-0.9,0.3-1.9,0.3-2.8c0-3.4,0-6.9,0-10.3
				c0-2.3,0-2.3,2.4-2.3c1.9,0,1.9,0,1.9,1.8c0,2.9,0,5.8,0,8.6c0,0.8,0,1.6,0.2,2.4c0.6,3.1,2.4,4.8,5.6,4.9c2.3,0.1,4.6,0,7,0.1
				c1.3,0,1.6-0.6,1.6-1.7c0-3.9,0-7.8,0-11.8c0-7.4,0-14.9,0-22.3c0-0.7-0.3-1.5,0.4-2c0.3-0.2,3.3-0.2,3.5,0
				c0.3,0.2,0.4,0.5,0.4,0.8c0,0.6,0,1.1,0,1.7c0,12.3,0,24.6,0,37c0,0.5,0,1,0,1.4c0,1-0.4,1.5-1.4,1.5c-3.8,0-7.5,0-11.3-0.1
				c-2.8-0.1-5.1-1.2-6.3-3.9c-0.3,0.1-0.5,0.1-0.5,0.2c-1.5,3-4.1,3.8-7.2,3.8c-1.6,0-3.2,0-4.8,0c-3.1-0.1-5.9-0.7-7.2-4.2
				C229.1,519.4,228.7,520.2,228.4,521z"/>
			<path class="st1" d="M308.3,37.3c0.3-0.1,0.4-0.2,0.5-0.4c2.5-2.1,5.1-4.3,7.6-6.4c6.1-5.2,12.5-10.1,19.3-14.4
				c0.3-0.2,0.6-0.5,0.9-0.8c1.7-0.7,3.3-1.8,4.8-2.9c1.2-0.5,2.4-1,3.4-1.9c0.4,0,0.7-0.1,0.9-0.5c0.4,0,0.8-0.1,1-0.5
				c1.4-0.4,2.7-1.1,3.9-1.9c0.4,0,0.7-0.1,1-0.5c1.6-0.4,3-1.1,4.3-1.9c0.9-0.1,1.7-0.4,2.4-1c2-0.5,3.9-1.1,5.8-1.9
				c4.7-1.2,9.5-1.3,14.3-0.9c0.6,0.4,1.2,0.5,1.9,0.5c0.4,0.4,0.9,0.5,1.4,0.5c1.6,0.8,3.2,1.6,4.8,2.4c0.3,0.5,0.8,0.9,1.4,1
				c0.7,0.8,1.4,1.5,2.3,2c0.1,0.3,0.2,0.4,0.5,0.4c0.1,0.3,0.2,0.4,0.5,0.5c0,0.3,0.2,0.4,0.5,0.5c0,0.3,0.2,0.4,0.5,0.5
				c0.4,1,1.2,1.7,2,2.4c0.3,0.8,0.7,1.4,1.4,2c0.1,0.6,0.4,1.1,0.9,1.5c1.6,3.5,3.4,6.9,4.6,10.5c0.5,1.6,0.6,2.9-0.7,4.2
				c-0.4,0-0.7,0.1-1,0.5c-0.5,0.2-1.1,0.3-1.6,0.6c-7.8,3.9-15.5,7.7-23.2,11.6c-0.4,0.2-0.9,0.4-1.1,0.8c-2.6,1-5,2.3-7.2,3.9
				c-1.3,0.4-2.4,1-3.4,1.9c-2.6,1.1-5,2.6-7.2,4.4c-2.9,1.5-5.6,3.3-8.2,5.3c-2.2,1.2-4.4,2.6-6.2,4.3c-2.6,1.5-5,3.3-7.2,5.3
				c-1,0.4-1.8,1.1-2.4,1.9c-1.8,1-3.4,2.3-4.8,3.8c-1,0.4-1.8,1.1-2.4,2c-1.3,0.7-2.4,1.7-3.4,2.9c-1.7,1-3.1,2.4-4.3,3.8
				c-2.3,1.6-4.4,3.6-6.2,5.8c-3,2.4-5.7,5.1-8.2,8.1l0,0c0,0.3-0.2,0.4-0.5,0.5l0,0c-2.1,1.9-4.1,3.9-5.8,6.2l0,0
				c0,0.3-0.2,0.4-0.5,0.5v0c-2.4,2.1-4.4,4.6-6.2,7.2c-1.5,1.4-2.8,3-3.9,4.8c-2.2,2.2-3.9,4.8-5.8,7.2
				c-3.9,5.2-7.6,10.6-11.1,16.1c-0.3,0.5-0.7,1-0.9,1.7c0,0.1,0,0.2-0.1,0.3c-1.3,1.9-2.3,4.1-3.8,6v0c-1.4,1.8-2.5,3.7-3.3,5.8
				c-1.1,1.3-1.8,2.8-2.4,4.3h0c-0.2,0.3-0.1,0.8-0.5,1v0c-1.4,1.6-2.2,3.7-3.1,5.6c-1.9,3.9-4.1,7.6-5.5,11.6
				c-2.5,4.4-4.2,9.1-6.1,13.7c-4.2,10.2-7.9,20.5-11.1,31c-0.2,0.8-0.5,1.5-0.5,2.3c-0.8,1.7-1.2,3.5-1.5,5.3
				c-1.7,4.6-2.6,9.4-3.7,14.1c-1.7,7.1-3.2,14.2-4.2,21.4c-0.7,4.8-1.1,9.7-1.6,14.5c-0.4,3.5-0.7,7.1-1.1,10.7
				c-0.7-0.2-0.7-0.8-0.7-1.2c-0.7-6.1-2-12.1-2.2-18.3c-0.5-12.3-1.1-24.6,0.2-36.9c2-19.2,5-38.3,9.8-57.1
				c0.9-3.5,2.1-6.9,2.8-10.4c1.4-3.2,2.2-6.6,3.4-9.9c3.3-9.4,7.1-18.6,11.2-27.6c0.3-0.7,0.8-1.4,0.9-2.2c2.1-3.8,4-7.6,5.7-11.5
				c0.4-0.2,0.5-0.6,0.5-0.9c0.4-0.2,0.5-0.6,0.5-0.9c1-1.3,1.8-2.8,2.4-4.4c0.4-0.2,0.5-0.5,0.5-0.9c0.9-1,1.5-2.1,1.9-3.4
				c0.5-0.4,0.8-0.9,0.9-1.5c0.4-0.2,0.5-0.5,0.5-0.9c0.7-0.7,1.1-1.5,1.4-2.4c0.5-0.4,0.8-0.9,0.9-1.5c0.4-0.2,0.5-0.5,0.6-0.9
				c0.5-0.4,0.8-0.9,0.9-1.5c0.7-0.6,1.2-1.4,1.5-2.4c0.5-0.4,0.8-0.8,0.9-1.5c0.5-0.4,0.8-0.8,0.9-1.5c1.5-1.8,2.8-3.7,3.9-5.7
				c2.2-2.9,4.3-5.9,6.5-8.8c4.4-5.8,9-11.4,13.8-16.8c0.5-0.5,1.1-1,1.3-1.7c3-2.9,5.9-5.9,8.6-9.1l0,0c0-0.3,0.2-0.4,0.5-0.5l0,0
				c0.9-0.4,1.5-1.1,1.9-1.9C303.7,42,306,39.7,308.3,37.3z"/>
			<path class="st1" d="M323.7,568c-0.1-0.9-0.4-1.7-1-2.4c-0.8-2.8-2.1-5.4-3.3-8.2c-0.9,0.6-0.6,1.2-0.6,1.7c0,6.7,0,13.4,0,20.1
				c0,1.7-0.1,1.7-1.7,1.8c-1.1,0-1.5-0.3-1.5-1.5c0-8.7,0-17.4,0-26.1c0-1.1,0.4-1.6,1.5-1.5c0.1,0,0.2,0,0.2,0
				c2-0.3,3.6,0.2,4.3,2.3c0.5,2,1.4,3.9,2.4,5.7c0.2,1.2,0.7,2.3,1.4,3.4c0.2,1.2,0.7,2.3,1.4,3.4c0.8,2.7,2.1,5.1,3.2,7.9
				c1-0.9,1.2-1.9,1.6-2.7c2.6-6,5.1-12,7.7-18.1c0.3-0.7,0.4-1.7,1.3-1.8c1.2-0.1,2.4,0,3.6,0c0.3,0,0.5,0.4,0.5,0.7
				c0,0.6,0,1.1,0,1.7c0,8,0,16,0,24c0,0.2,0,0.5,0,0.7c0,1.8-0.2,1.8-1.6,1.9c-1.5,0.1-1.5-0.8-1.5-1.8c0-5.1,0-10.2,0-15.4
				c0-1.6,0-3.2,0-4.8c0-0.4,0.1-0.8-0.5-1c-0.9,0.3-1,1.4-1.3,2.1c-2.7,6.3-5.3,12.5-7.9,18.8c-0.1,0.4-0.3,0.7-0.5,1.1
				c-0.2,0.7-0.7,1-1.4,1c-0.8,0-1.1-0.5-1.4-1.1c-0.8-1.9-1.6-3.8-2.4-5.8c-0.4-1-0.7-2-1.3-2.8C324.8,570.2,324.4,569,323.7,568z"
				/>
			<path class="st1" d="M442.2,324.2c2.7,0.1,5,1.1,7.1,2.6c2.2,1.5,4,3.5,5.2,5.9c0.8,1.6,0.8,1.6-0.8,2.4c-2.6,1.2-4.7,3-5.5,5.9
				c-0.3,0.9-0.3,1.9-0.3,2.8c0,1-0.5,1.3-1.3,1.2c-0.1,0-0.2,0-0.2,0c-4.1-0.1-11.1-5.1-12.7-8.9
				C431.8,331.6,435.4,324.3,442.2,324.2z"/>
			<path class="st1" d="M452.1,346.9c0-4.8,4.6-9.6,9.3-9.8c1.2,0,2.2,0.3,3.2,0.8c3.6,1.8,6.4,4.4,8.5,7.8c1.1,1.8,1.3,3.7,0.7,5.7
				c-1.4,4.4-6.3,8.8-12.5,5.9c-3.1-1.5-5.7-3.5-7.7-6.3C452.7,349.8,452,348.5,452.1,346.9z"/>
			<path class="st1" d="M519.8,581c-5.7,0-11.3,0.1-17,0.1c-1.5,0-1.5-0.1-1.5-2c0-7.3,0-14.5,0-21.8c0-1.3,0-2.6,0-3.8
				c0-1,0.3-1.5,1.4-1.5c5,0,10.1,0,15.1,0c1.3,0,1.3,0.8,1.3,1.8c0,1-0.5,1.4-1.5,1.4c-3.7,0-7.4,0-11,0c-2,0-2,0-2,2
				c0,1.9,0,3.8,0,5.8c0,1.1,0.4,1.5,1.6,1.5c3,0,6.1,0,9.1,0c0.6,0,1.1,0,1.7,0c1.2,0,1.2,0.8,1.2,1.6c0,1-0.2,1.5-1.3,1.5
				c-3.4,0-6.7,0-10.1,0c-2.1,0-2.1,0-2.2,2.1c0,2.2,0,4.3,0,6.5c0,1.8,0.1,1.9,1.9,1.9c3.7,0,7.3,0,11,0c2.3,0,2.3,0,2.4,2.3
				C519.7,580.5,519.8,580.8,519.8,581C519.8,581,519.8,581,519.8,581z"/>
			<path class="st1" d="M118.5,260.5c0.1,0.6,0.5,1.1,1,1.4c0.6,1.3,1.3,2.4,2.3,3.4c0.6,1.4,1.3,2.7,2.4,3.8c1.4,2.8,3,5.5,4.8,8.2
				c1.5,3.2,3.1,6.3,4.5,9.5c3.5,7.5,6.4,15.3,8.7,23.3c0.1,0.5,0.3,0.9,0.4,1.4c1,4.4-0.5,7.3-4.6,9c-2,0.8-3.4,0.4-4.6-1.4
				c-0.7-1.1-1.1-2.3-1.5-3.5c-3.1-9.8-5.9-19.7-9.4-29.4c-3.2-9-7.6-17.4-13.1-25.2c-0.4-0.6-0.8-1.2-1.4-1.6
				c-0.6-1.5-1.8-2.6-2.7-3.9c-4-5.3-8.6-10.1-13.6-14.5c-0.2-0.2-0.5-0.4-0.7-0.5c-0.8,0.3-0.9,1-1.2,1.5c-2.3,4-6.1,5.9-10.6,5.3
				c-3.1-0.4-6.1-1.4-9-2.3l0,0c-3.8-1.8-7.1-4.2-9.1-8.1c-0.3-0.7-0.6-1.4-1-2.2c-2.2-4.8-1.4-9.1,2.5-12.7
				c0.3-0.3,0.6-0.6,0.8-0.8c0.8-0.4,1.6-0.8,2.4-1.1c3.1-1.2,6.1-1.1,9.1,0.2c0.9,0.4,1.8,1.1,2.8,1.3c0.4,0.1,0.7,0.2,1,0.5l0,0
				c0.8,0.5,1.8,0.8,2.4,1.5l0,0c0.8,0.5,1.7,0.8,2.4,1.5l0,0c0.6,0.3,1.1,0.6,1.6,0.9c0.9,0.8,2,1.1,2.7,2l0,0
				c0.8,0.3,1.4,0.9,2,1.5l0,0c0.2,0.1,0.4,0.1,0.6,0.3c0.1,0.1,0.1,0.1,0.2,0.2c0.5,0.5,1,1,1.6,1.5c0.2,0.1,0.4,0.2,0.6,0.2
				c0.2,0.1,0.3,0.3,0.4,0.4c0,0.1,0,0.2,0,0.3c4.2,4.1,8.4,8.3,12.5,12.4v0c0.2,0.1,0.4,0.3,0.5,0.5h0c0.2,0.1,0.4,0.3,0.5,0.5l0,0
				c0.3,0,0.4,0.3,0.5,0.5l0,0c0.6,1.1,1.4,2.1,2.5,2.8v0c0.2,0.1,0.4,0.3,0.5,0.5h0c0.3,0.1,0.4,0.3,0.5,0.5l0,0
				c0.3,0.8,0.8,1.4,1.5,1.8v0c0.2,0.1,0.4,0.3,0.5,0.5l0,0c0.3,0.8,0.8,1.4,1.5,1.9v0c0.2,0.1,0.4,0.3,0.5,0.5l0,0
				c0.3,0.8,0.8,1.4,1.4,1.9c0.3,0.8,0.8,1.4,1.4,1.9C117.3,259.4,117.8,260,118.5,260.5z"/>
			<path class="st1" d="M282.8,566.5c0-4.1,0-8.2,0-12.2c0-2.3,0-2.3,2.2-2.3c4.5,0,9,0,13.4,0c2,0,2.1,0.1,2.1,1.7
				c0,1.4-0.1,1.5-2,1.5c-3.5,0-7,0-10.5,0c-1.9,0-1.9,0-1.9,1.8c0,1.9,0,3.8,0,5.8c0,1.3,0.5,1.7,1.7,1.7c3.4,0,6.9,0,10.3,0
				c1.4,0,1.6,0.3,1.6,1.7c0,1.3-0.7,1.4-1.7,1.4c-3.3,0-6.5,0-9.8,0c-2,0-2,0-2,2c0,2.1,0,4.2,0,6.2c0,2.3,0,2.3,2.2,2.2
				c3.8,0,7.5,0,11.3,0c1.7,0,1.9,0.3,1.8,2c0,1-0.5,1.2-1.3,1.2c-5.3,0-10.5,0-15.8,0c-1.3,0-1.4-0.6-1.4-1.6
				C282.8,575.1,282.8,570.8,282.8,566.5z"/>
			<path class="st1" d="M380.4,566.4c0-4.2,0-8.5,0-12.7c0-1.5,1.4-2.3,2.8-1.6c0.7,0.3,0.5,0.9,0.5,1.5c0,2.6,0,5.3,0,7.9
				c0,0.6,0,1.1,0,1.7c0,0.9,0.4,1.3,1.3,1.3c4.2,0,8.5,0,12.7,0c1.1,0,1.4-0.5,1.4-1.5c0-3,0-6.1,0-9.1c0-1.7,0.3-1.9,1.9-1.9
				c0.9,0,1.3,0.4,1.3,1.3c0,0.2,0,0.3,0,0.5c0,8.5,0,17.1,0,25.6c0,1.7-0.2,1.7-1.8,1.7c-1.2,0-1.5-0.5-1.5-1.6c0-3.3,0-6.5,0-9.8
				c0-2.1,0-2.2-2.1-2.2c-3.8,0-7.5,0-11.3,0c-2,0-2,0-2,2c0,3.3,0,6.5,0,9.8c0,1.6-1.2,2.3-2.6,1.7c-0.5-0.2-0.5-0.5-0.6-0.9
				c0-0.6,0-1.1,0-1.7C380.4,574.4,380.4,570.4,380.4,566.4z"/>
			<path class="st1" d="M324.1,529.8c0.6-0.1,1.1-0.4,1.4-1h0c0.1-0.2,0.3-0.4,0.5-0.5l0,0c0.1-0.3,0.2-0.4,0.5-0.5h0
				c0.1-0.3,0.3-0.4,0.5-0.5v0c1.7-1.7,2.2-3.8,2.3-6.1c0.1-2.4,0.1-4.8,0.1-7.2c0-10.3,0-20.6,0-30.9c0-0.6,0-1.1,0-1.7
				c0-1,0.5-1.3,1.3-1.2c1,0,1.9,0.1,2.9,0.1c0,10.1,0,20.1,0,30.2c0,5.8,1.9,7.6,7.6,7.6c12.1,0,24.1,0,36.2,0c0.7,0,1.4,0,2,0
				c0.4-0.8,0-1.2-0.2-1.7c-1.1-2.5-1.2-5.1-1.7-7.7c-0.2-1-0.4-1.9-0.7-2.8c-0.8-2-2.4-3.2-4.6-3.3c-1.9-0.1-3.7,0.2-5.4,0.8
				c-0.9,0.3-1.3,0.1-1.5-0.8c-0.8-3.4-1-3.2,2.3-4c1.2-0.3,2.3-0.5,3.5-0.7c2.6-0.4,4.9,0.3,7.1,1.5c0.4,0.6,0.9,1.1,1.4,1.4
				c1.7,2.6,2.3,5.5,2.5,8.5c0,0.5-0.1,1.1,0.3,1.6c0,1.1,0.3,2.2,0.7,3.3c1.1,2.8,2.6,3.9,5.6,3.9c2.1,0,4.2,0,6.2,0
				c1.3,0,1.7-0.5,1.7-1.7c0-4.5,0-9,0-13.4c0-2.6,1.2-3.5,3.7-2.7c0.4,0.1,0.7,0.4,0.7,0.8c0,0.4,0,0.8,0,1.2c0,6.2,0,12.3,0,18.5
				c0,1.8,0,1.9-1.9,1.9c-3.7,0-7.3,0-11,0c-1.4,0-2.9-0.1-4.2-0.8c-0.2-0.3-0.7-0.1-0.9-0.5l0,0c-0.2-0.1-0.4-0.3-0.6-0.4
				c-0.3-0.2-0.6-0.5-0.9-0.7c-1.1-0.9-1.1-0.9-2,0.6c-1.3,1.5-3,1.9-5,1.9c-11.3,0-22.5,0-33.8,0c-1.4,0-2.9-0.3-4.3-0.4
				c-0.9-0.7-1.8-1.5-2.8-2.3c-0.2,1.4-0.4,2.6-0.7,3.9c-1.2,6.3-6.1,11-12.5,11.8c-4.9,0.7-9.5,0-13.7-2.8c-0.5-0.6-1-1.2-1.5-1.8
				c-0.4-0.4-0.5-1-1-1.4c-3.3-5.9-2.9-11.8-0.1-17.7c0.4-0.8,0.8-1.1,1.6-0.6c0.4,0.3,0.9,0.4,1.3,0.6c0.9,0.7,1.2,1.4,0.6,2.6
				c-1.3,2.7-1.7,5.7-1.1,8.6c0.4,2.2,1.3,4.3,3.3,5.6c2.8,2.7,6.2,2.9,9.7,2.5C321.3,531.2,322.9,531,324.1,529.8z"/>
			<path class="st1" d="M46.1,247.5c1.3,0.9,2.8,1.5,4.3,2c3.2,1.6,6.4,3.2,9.6,4.8c2.9,1.9,5.9,3.7,9.1,5.3
				c2.7,1.9,5.5,3.9,8.2,5.8c8.9,6.5,16.6,14.3,24.2,22.1c2,2.1,4,4.1,6,6.1c0.9,1.5,2.3,2.6,3.4,3.9c2.3,2.8,2.2,5.8-0.4,8.5
				c-0.5,0.3-1,0.6-1.5,0.9c-1.5,1-3.1,0.7-4.7,0.4c-0.4-0.5-0.8-0.8-1.4-1c0-0.3-0.2-0.4-0.5-0.5c-0.3-0.8-0.8-1.4-1.4-1.9
				c-0.1-0.6-0.4-1.1-1-1.4c-0.5-1.3-1.3-2.4-2.4-3.4c-1.1-2.1-2.6-4.1-4.3-5.8c-1.3-2.1-2.9-4.1-4.8-5.8c-1.4-2.2-3.4-3.9-5.2-5.8
				c-0.7-0.8-1.4-1.5-2.1-2.2c-0.9-0.9-1.8-1.8-2.8-2.5c-0.1-0.1-0.3-0.1-0.4-0.1c-0.8-1-1.7-1.9-2.9-2.4c-1.1-1.2-2.3-2.2-3.8-2.9
				c-1-1-2.1-1.9-3.4-2.4l0,0c-1.9-1-3.6-2.2-5.3-3.4l0,0c-1.6-1.5-3.7-2.5-5.6-3.6c-5.6-3.3-11.2-6.4-16.9-9.5
				c-0.6-0.4-1.2-0.7-2-0.7c-1.8-0.4-2.4-0.2-3.1,1.2c-0.4,0.8-0.6,1.6-0.8,2.5c-0.6,2.8-2.3,4.8-4.8,5.9
				c-8.1,3.4-18.4,2.6-25.6-4.6c-3.4-3.4-3.6-8.4-1.9-12c1.4-3,3.8-5,7.1-5.4c8-1.1,15.8-0.4,23.4,2.5c4,1.5,7.9,3.1,11.8,4.6
				C44.9,247.2,45.5,247.3,46.1,247.5z"/>
			<path class="st1" d="M250,556.7c0.1,0.6,0.4,1.1,1,1.4c0.2,0.4,0.4,0.9,0.6,1.3c0.3,0.5,0.5,1,1,1.4c1.7,2,2.8,4.4,4.6,6.4
				c0.1,0.6,0.5,1.1,1,1.4c0.1,0.6,0.4,1.1,1,1.4c1,2,2.5,3.8,3.9,5.9c0.6-1.1,0.4-1.9,0.4-2.6c0-6.5,0-13.1,0-19.6
				c0-1.7,0.3-1.9,2-1.8c0.8,0,1.2,0.3,1.2,1.1c0,0.5,0,1,0,1.4c0,8,0,16,0,23.9c0,0.6,0,1.1,0,1.7c0,0.5-0.3,0.9-0.9,0.9
				c-1.7,0-3.4,0.3-4.4-1.5c-0.1-0.6-0.4-1.1-1-1.4c-0.1-0.6-0.5-1.1-1-1.4c-0.9-1.8-2-3.4-3.3-4.8c-1.9-3.2-3.9-6.3-6.2-9.1
				c-0.9-2-2.4-3.6-3.5-5.4c-0.8,0.5-0.5,1.2-0.5,1.8c0,6.7,0,13.4,0,20.1c0,1.8-0.1,1.9-1.6,1.9c-1.5,0-1.6-0.1-1.6-1.6
				c0-3.2,0-6.4,0-9.6c0-5.3,0-10.7,0-16.1c0-1.8,0-1.7,1.7-1.9c1.7-0.2,2.9,0.4,3.7,1.9C248.5,554.9,249,556,250,556.7z"/>
			<path class="st1" d="M155.1,568.2c0,3.7,0,7.4,0,11c0,1.6-1.1,2.3-2.6,1.7c-0.5-0.2-0.6-0.5-0.6-0.9c0-0.6,0-1.1,0-1.7
				c0-6.7,0-13.4,0-20.2c0-0.6,0-1.1,0-1.7c0.1-1-0.4-1.5-1.4-1.4c-2.1,0-4.2,0-6.2,0c-1.6,0-1.7-0.2-1.7-1.8c0-1.1,0.5-1.4,1.5-1.4
				c2.6,0,5.1,0,7.7,0c3.7,0,7.4,0,11,0c1.8,0,2,0.2,1.9,1.6c0,1.4-0.2,1.5-2,1.5c-1.4,0-2.9,0-4.3,0c-3.6,0-3.1-0.3-3.1,3.3
				C155.1,561.7,155.1,565,155.1,568.2z"/>
			<path class="st1" d="M192.4,435.8c2.7,2.8,2.9,6.3,2.4,9.9c-0.5,3.9-3.7,6.7-7.9,7.1c-3.1,0.3-6.2,0.1-9.3-0.7
				c-5.1-1.4-7.6-5.8-6.2-10.9c0.5-1.8,1.3-3.4,2.6-4.8c1.5-1.5,3.4-2.3,5.6-2.3c2.8,0.1,5.6,0.3,8.4,0.4
				C189.6,434.6,191,435.3,192.4,435.8C192.4,435.8,192.4,435.8,192.4,435.8z"/>
			<path class="st1" d="M276.7,501.7c0-6.2,0-12.3,0-18.5c0-0.6,0-1.1,0-1.7c0-0.8,0.3-1.2,1.1-1.2c0.4,0,0.8,0,1.2,0
				c1.8,0,1.9,0,1.9,1.9c0,12.9,0,25.7,0,38.6c0,0.7,0.3,1.7-0.5,1.9c-1,0.3-2.2,0.4-3.3-0.1c-0.6-0.3-0.4-1-0.4-1.5
				c0-2.5,0-5,0-7.4C276.7,509.6,276.7,505.7,276.7,501.7z"/>
			<path class="st1" d="M211.8,565.1c0-0.3-0.2-0.4-0.5-0.5c-1.9-3-2.1-6.2-0.5-9.4c0.8-0.8,1.6-1.6,2.4-2.4
				c2.5-1.2,5.1-1.8,7.9-1.5c2,0.3,3.7,0.9,5.2,2.3c0.4,0.4,0.8,0.8,0.7,1.4c-0.3,0-0.4,0.2-0.5,0.4c-0.3,0.2-0.6,0.3-0.8,0.5
				c-0.7,0.7-1.2,0.5-2-0.1c-2.5-2-5.5-2.1-8.3-0.4c-3,2-3,5.9,0.1,7.7c2.2,1.2,4.6,2,7.1,2.6c0.5,0.3,0.9,0.6,1.4,0.9
				c5.1,2.7,4.9,10.8-0.3,13.7c-4.6,2.5-12.4,1.4-14.5-2.8c0.2-0.1,0.6-0.3,0.9-0.5c1.5-1.3,1.5-1.3,3,0c2.4,2,6.1,2.3,8.8,0.7
				c1.6-1,2.5-2.4,2.4-4.4c-0.1-1.9-1-3.2-2.7-3.9c-1.3-0.6-2.7-1.1-4-1.5C215.6,567.2,213.6,566.3,211.8,565.1z"/>
			<path class="st1" d="M120.1,566.7c0-4.2,0-8.5,0-12.7c0-1.9,0.8-2.5,2.5-2c0.4,0.1,0.7,0.3,0.7,0.8c0,0.6,0,1.3,0,1.9
				c0,7,0,13.9,0,20.8c0,2.3,0,2.3,2.4,2.3c3,0,6.1,0,9.1,0c1.5,0,1.5,0.2,1.6,1.7c0,1.2-0.5,1.5-1.6,1.5c-4.4,0-8.8,0-13.2,0
				c-1.3,0-1.6-0.5-1.6-1.7C120.2,575.2,120.1,570.9,120.1,566.7z"/>
			<path class="st1" d="M426.4,532.5c-0.1-0.3-0.2-0.4-0.5-0.5c-2.3-2.9-3.5-6.1-3.8-9.8c-0.1-2,0.3-3.9,0.4-5.9
				c0.8-1.7,1.2-3.6,2.4-5.2c1.2,0.1,2,1.2,3.1,1.4c0.1,0.3,0.2,0.4,0.5,0.4c-1.3,2.8-2.2,5.6-1.9,8.7c0.3,3.5,1.5,6.4,4.8,8.1
				c0.5,0.6,1.2,0.9,2,0.9c2,0.8,4.2,1.1,6.3,0.5c2-0.1,3.8-0.5,5.3-2h0c0.1-0.2,0.3-0.4,0.5-0.5l0,0c0.7-0.2,1.2-0.7,1.4-1.4
				c0.3-0.1,0.4-0.3,0.4-0.5c0.4-0.2,0.5-0.5,0.6-0.9c0.8-0.6,0.9-1.5,1-2.4c0.7-1.5,0.5-3.1,0.5-4.7c0-11.7,0-23.3,0-35
				c0-0.5,0-1,0-1.4c0-2.1,0-2.1,2.1-2.1c2,0,2.1,0,2.1,2.2c0,9.4,0,18.8,0,28.3c0,1.7,0.1,3.3,0.9,4.9c0.3,0.6,0.7,1.1,1.4,1.3
				c1.1,1.2,2.5,1.3,4,1.3c7.9,0,15.8,0,23.7,0c2.5,0,3.5-1,3.6-3.5c0.1-2.2,0-4.3,0-6.5c0-1.9,0-1.9,2-2c0.3,0,0.6,0,1,0
				c1.1-0.1,1.4,0.5,1.3,1.5c0,1.3-0.1,2.6,0,3.8c0.2,1.7,0.2,3.5,1.8,4.8c0.3,0.6,0.8,0.9,1.4,1c1.7,1.2,3.7,0.9,5.5,0.7
				c1-0.1,1.7-0.8,2-1.9c0.3-0.9,0.4-1.9,0.4-2.8c0-2.6,0-5.3,0-7.9c0-1.3,0.5-1.6,1.7-1.7c2.7,0,2.6-0.1,2.7,2.5
				c0.1,2.2-0.4,4.5,0.3,6.6c0,0.7,0,1.4,0.5,1.9c0.6,1.8,1.9,2.7,3.6,3.1c1.2,0.3,2.4,0.3,3.6,0.2c2.4-0.1,3.2-0.9,3.4-3.4
				c0.1-1,0.1-1.9,0.1-2.9c0-3.2,0-6.4,0-9.6c0-1.9,0-1.9,1.8-1.9c0.2,0,0.3,0,0.5,0c1.9,0,1.9,0,1.9,1.8c0,3,0,6.1,0,9.1
				c0,1.8,0.2,3.7,1.8,5l0,0c0.3,0,0.4,0.2,0.5,0.5l0,0c0.8,1,2,1.3,3.2,1.3c3,0.1,6,0.1,9,0.1c0.9,0,1.3-0.3,0.5-1.1
				c0-0.3-0.2-0.4-0.5-0.5c-1.8-2.7-3-5.5-2.8-8.9c0.1-1.5,0.7-2.9,0.9-4.4c0.3-0.2,0.5-0.5,0.5-0.9c1.3-1.5,2.6-2.8,4.3-3.8
				c3.2-1.1,6.5-1.3,9.9-0.7c0.9,0.2,1.2,0.5,1.1,1.4c-0.4,3.5,0.1,3.4-3.2,2.9c-1.5-0.3-3,0-4.5,0.5c-2.6,0.8-4.2,2.5-4.5,5.3
				c-0.2,2.2-0.3,4.3,1.4,6c1.9,3.1,5.1,3.9,8.4,4.3c1,0.1,2.1,0.1,3.1,0c1.2,0,1.7,0.3,1.8,1.6c0.1,3,0.1,3-2.9,3
				c-6.5,0-12.9,0-19.4,0c-2.3,0-4.4-0.2-6.6-1c-1-0.9-1.7-2-2.4-3.2c-1,1.2-1.8,2.2-2.6,3.2c-3.8,1.3-7.6,1.4-11.3-0.5
				c0-0.3-0.2-0.4-0.5-0.5c-0.3-0.8-0.7-1.5-1.5-2.2c-0.8,0.6-1.2,1.4-1.6,2.2c-0.3,0-0.4,0.2-0.5,0.5c-1.9,1.1-4,1.5-6.2,1.4
				c-3-0.1-5.6-0.9-6.9-4c-0.9,0.3-1.1,1-1.3,1.7c-0.3,0.1-0.4,0.3-0.4,0.5c-0.3,0-0.4,0.2-0.5,0.5c-1.9,1.1-4,1.4-6.2,1.4
				c-7.3,0-14.5,0-21.8,0c-1.5,0-3-0.3-4.5-0.5c-0.8-0.7-1.7-1.4-2.9-2.3c-0.2,3.2-1,5.9-2.1,8.6c-0.5,0.4-0.8,0.9-0.9,1.5
				c-1.1,1.1-2.3,2.2-3.4,3.3c-3.3,1.9-6.9,2.7-10.7,2.6C432.8,535.9,429.4,534.7,426.4,532.5z"/>
			<path class="st1" d="M90.4,555.7c0.7-1,1.2-2.1,1.5-3.3c0.5-0.4,1.1-0.4,1.8-0.4c1.1-0.1,1.7,0.3,2.1,1.4c0.8,2,1.4,4,2.6,5.8
				c1.4,4.4,3.5,8.6,5.2,12.9c1.2,3,2.4,5.9,3.6,8.8c-0.8,0.5-1.4,0.3-2,0.3c-1.2,0.2-1.7-0.4-2.1-1.4c-0.6-1.6-1.3-3.1-1.9-4.7
				c-0.3-0.8-0.8-1.1-1.6-1.1c-4,0-8,0-12,0c-0.9,0-1.5,0.4-1.8,1.3c-0.4,1.1-0.9,2.2-1.4,3.3c-1.1,2.7-1.2,2.7-4.3,2.5
				c0-1.9,1.5-3.3,1.7-5.1c2.1-4.4,4.1-8.8,5.8-13.4C88.7,560.3,89.7,558.1,90.4,555.7z"/>
			<path class="st2" d="M465,551.9c0.1,0.3,0.2,0.4,0.5,0.5c0.1,0.6,0.5,1.1,1,1.4c0.1,0.6,0.4,1.1,1,1.4c0.2,0.4,0.4,0.9,0.6,1.3
				c0.3,0.5,0.5,1.1,1,1.5c1,1.1,1.5,2.5,2.7,3.5c0.2,0.4,0.4,0.9,0.6,1.3c0.2,0.2,0.3,0.3,0.4,0.5l0,0c0.4,0.2,0.2,0.7,0.6,0.8
				c0.1,0.1,0.2,0.1,0.3,0.1c0.1,0.6,0.4,1.1,1,1.4c1.2,2.3,2.6,4.3,4.3,6.3c0.1,0.6,0.5,1.1,1,1.4c0.1,0.6,0.5,1.1,1,1.4
				c0.1,0.3,0.1,0.7,0.5,0.7c0.2,0,0.4-0.1,0.4-0.4c0-0.6,0-1.3,0-1.9c0-6.5,0-12.9,0-19.4c0-1.9,0.3-2.1,2.1-1.9
				c0.8,0.1,1.2,0.3,1.2,1.2c0,0.5,0,1,0,1.4c0,8,0,16,0,23.9c0,0.6,0,1.1,0,1.7c0,0.3-0.1,0.6-0.4,0.8c-1,0.6-3.7,0-4.5-1.1
				c-1.1-1.5-2-3.3-3.4-4.6c-0.2-0.6-0.4-1.1-1-1.4c-1.5-2.7-3.3-5.3-5.3-7.7c-1.7-3-3.8-5.8-5.8-8.7c-0.9,0.8-0.6,1.6-0.6,2.3
				c0,6.5,0,13.1,0,19.6c0,1.8-0.2,1.8-1.9,1.9c-1.5,0-1.3-1-1.3-1.9c0-6.9,0-13.7,0-20.6c0-1.4,0-2.7,0-4.1c0-2.5,0-2.5,2.7-2.5
				C464.1,552,464.6,552,465,551.9z"/>
			<path class="st2" d="M192.9,567.7c0.9,2.8,2,5.5,3.4,8.1c0.3,1.7,1.5,3.2,1.7,4.9c-0.5,0.5-1.1,0.2-1.6,0.3
				c-1.3,0.2-2.1-0.3-2.5-1.6c-0.5-1.5-1.2-3-1.8-4.4c-0.3-0.9-0.9-1.2-1.8-1.2c-4,0-8,0-11.9,0c-0.8,0-1.4,0.3-1.6,1.1
				c-0.7,1.9-1.7,3.6-2.1,5.6c-1.5,0.7-1.5,0.7-3.6,0.3c-0.2-0.5,0.1-0.9,0.3-1.4c3.7-8.6,7.5-17.3,11.2-25.9c0.4-0.9,0.7-1.7,2-1.7
				c1.2,0,1.9,0.4,2.3,1.5c1.2,3.1,2.5,6.2,3.8,9.3C191.4,564.4,191.9,566.2,192.9,567.7z"/>
			<path class="st1" d="M148.5,437.7c0.7-0.5,1.4-1.2,1.9-1.9c2.7-1.4,5.5-1.8,8.5-1.3c2.5,0.4,5.1,0.4,7.6,0.6
				c0.8,0.1,1.7,0.2,2.5,0.2c0,1.1-1.1,1.3-1.1,2.2c-1.9,2.1-3.2,4.4-2.4,7.3c0,1.9,1.2,3.2,2.3,4.6c0.4,0.5,1.1,0.8,0.8,1.6
				c-0.3,0.7-1.1,0.7-1.7,0.7c-3.8,0.2-7.6,0.7-11.5,0.7c-6.4-0.1-10.2-5.5-8.3-11.7C147.5,439.7,148,438.7,148.5,437.7z"/>
			<path class="st1" d="M209.9,333.8c-0.2-0.2-0.3-0.4-0.5-0.5c-4.2-2.4-5.8-9-1.4-13.2c4.3-2,8.8-1.9,13.4-1.2
				c2.5,0.4,3.8,1.9,4.2,4.3c0.3,1.7,0.3,3.4,0,5c-0.5,2.8-2.2,4.7-4.9,5.7C217,335.2,213.5,335.2,209.9,333.8z"/>
			<path class="st1" d="M535.7,560.9c0-0.3-0.1-0.5-0.4-0.6c-0.3-0.9-0.7-1.7-1.5-2.3c-0.1-0.6-0.4-1.1-0.9-1.5
				c-0.1-0.6-0.4-1.1-0.9-1.5c-0.1-0.6-0.4-1.1-0.9-1.5c-0.5-1.6-0.5-1.6,1.1-1.7c0.7,0,1.4,0,2.1,0c0.1,0.3,0.2,0.4,0.5,0.4
				c0.3,0.9,0.7,1.8,1.5,2.4c0.3,0.9,0.7,1.8,1.5,2.4c0.1,0.6,0.4,1.1,0.9,1.5c0.3,0.9,0.8,1.7,1.5,2.4c0.3,0.9,0.7,1.8,1.5,2.4
				c0.2,0.6,0.3,1.3,1,1.3c0.7,0,0.9-0.7,1-1.3c0.8-0.6,1.2-1.5,1.5-2.4c0.5-0.4,0.8-0.8,0.9-1.5c0.1,0,0.3,0,0.4-0.1
				c0.4-0.2,0.2-0.7,0.6-0.9l0,0c0.2-0.2,0.3-0.4,0.4-0.6c0.1-0.3,0.1-0.5,0.2-0.8c0.5-0.4,0.8-0.9,0.9-1.5c0.8-0.6,1.2-1.5,1.5-2.4
				c1.5-1.5,1.5-1.5,4.6-1.1c-0.6,1.6-1.9,2.7-2.4,4.3c-1.7,2.1-3.1,4.3-4.3,6.7c-0.8,0.8-1.5,1.8-1.9,2.9c-1.4,1.3-1.8,2.8-1.7,4.7
				c0.1,2.9,0,5.7,0,8.6c0,1.5-1.2,2.2-2.6,1.6c-0.7-0.3-0.5-0.9-0.6-1.4c0-3.1,0-6.2,0-9.3c0-1.3-0.2-2.4-1.2-3.2
				c0-0.4-0.2-0.7-0.6-0.9c-0.1-0.6-0.4-1.1-1-1.4c-0.1-0.6-0.4-1.1-0.9-1.5c-0.1-0.6-0.4-1.1-0.9-1.5
				C536.3,561.4,536.1,561.1,535.7,560.9z"/>
			<path class="st1" d="M165.9,491.5c-1.3-0.1-2.5-1.4-2.5-2.8c0.1-1.4,1.4-2.5,2.8-2.4c1.3,0.1,2.3,1.3,2.3,2.6
				C168.5,490.4,167.2,491.6,165.9,491.5z"/>
			<path class="st1" d="M254,489c0,1.5-1.1,2.7-2.5,2.6c-1.3,0-2.3-1.2-2.4-2.5c0-1.5,1-2.7,2.4-2.7C253,486.3,254,487.5,254,489z"
				/>
			<path class="st1" d="M140.3,533.5c0-0.5-0.1-1,0-1.4c0.3-1.3,1.1-2.1,2.2-2.2c1.1-0.1,2.2,0.6,2.6,1.8c0.4,1,0,2.3-1,3
				c-1,0.7-2,0.6-3-0.3C140.8,534.1,140.5,533.8,140.3,533.5C140.3,533.5,140.3,533.5,140.3,533.5z"/>
			<path class="st1" d="M400.3,486.6c0.1,0.3,0.2,0.4,0.5,0.5c0.1,0.6,0.6,1.1,0.5,1.8c0,1.4-1,2.5-2.3,2.6
				c-1.3,0.1-2.5-0.9-2.6-2.3c-0.2-1.4,0.6-2.6,2-2.8C399,486.3,399.6,486.6,400.3,486.6z"/>
			<path class="st1" d="M148.9,534.9c-0.3-0.3-0.6-0.6-0.9-1c0-0.5-0.2-1.1-0.1-1.7c0.1-1.3,1-2.3,2.2-2.4c1.2-0.1,2.3,0.8,2.6,2
				c0.3,1.4-0.4,2.6-1.6,3.1C150.3,535.2,149.6,535,148.9,534.9z"/>
			<path class="st1" d="M245.7,491.2c-1.1,0.4-2.1,0.4-3.2,0c-0.5-0.9-1.2-1.7-0.8-2.9c0.5-1.5,1.8-2.3,3.1-1.8
				c1.4,0.5,2.1,2,1.6,3.5C246.2,490.4,246,490.8,245.7,491.2z"/>
			<path class="st1" d="M443,556.2c0,0.3,0.2,0.4,0.5,0.5c0.5,1,1.2,2,1.9,2.9c1.3,3.3,1.9,6.8,1.5,10.4c-0.4,0.6-0.4,1.3-0.4,1.9
				c-0.4,0.4-0.5,0.9-0.5,1.4c-0.3,0.3-0.4,0.6-0.4,1c-1.3,1.9-2.7,3.7-4.4,5.2c-0.6,0.1-1.1,0.5-1.5,1c-0.4,0-0.7,0.1-1,0.5
				c-3.4,1.3-6.9,1.4-10.4,1c-0.1,0-0.1-0.1-0.2-0.2c-8-2.3-11.8-9.8-10.6-17.2c0.1-0.7,0.2-1.4,0.2-2.1c0.4-0.4,0.4-0.9,0.5-1.4
				c0.5-0.6,0.8-1.2,0.9-2c0.4-0.2,0.5-0.5,0.6-0.9c0.6-0.5,1.1-1.2,1.5-1.9c0.3,0,0.4-0.2,0.5-0.5c0.8-0.3,1.3-0.9,1.9-1.5
				c0.6-0.1,1.1-0.4,1.5-0.9c1.8-0.5,3.6-1.3,5.5-1.5c3.5-0.3,6.6,0.5,9.7,2c0.3,0.5,0.8,0.8,1.4,1l0,0c0.3,0,0.5,0.2,0.5,0.5l0,0
				c0.3,0,0.4,0.2,0.5,0.5h0C442.6,556,442.8,556.2,443,556.2z"/>
			<path class="st1" d="M443.5,566.8c-0.1,7.4-5,12.5-11.8,12.3c-5.9-0.1-10.6-4.8-11-11.2c-0.3-4.3,1-8.1,4.5-10.8
				c5.7-4.6,14.4-2.3,17.2,4.5C443.2,563.5,443.5,565.3,443.5,566.8z"/>
			<path class="st1" d="M99,570.4c-4,0-7.5,0-11,0c0.2-1.7,4-11.2,5.6-13.7C95.4,561.3,97.1,565.7,99,570.4z"/>
			<path class="st1" d="M96.7,512.5c0-1.6-0.1-3.6,0.5-5.5c1-3.6,3.6-5.4,7.3-5.2c3.4,0.2,5.7,2.5,6.1,6.2c0.2,1.8,0.2,3.7-0.1,5.5
				c-0.4,2.6-1.7,3.9-4.4,4.3c-2.7,0.4-5.4,0.2-8.1,0.3c-1.1,0-1.4-0.5-1.4-1.5C96.7,515.3,96.7,514.1,96.7,512.5z"/>
		</g>
	</g>
</g>
</svg>
